<svg width="400" height="240" viewBox="0 0 400 240" fill="none" xmlns="http://www.w3.org/2000/svg">
<path d="M400 224C400 232.8 392.8 240 384 240H16C7.2 240 0 232.8 0 224V16C0 7.2 7.2 0 16 0H384C392.8 0 400 7.2 400 16V224Z" fill="white"/>
<g clip-path="url(#clip0_643_2362)">
<path d="M124.077 108.897L134.9 134.853C133.465 135.163 132.002 135.327 130.534 135.345C129.695 135.345 128.859 135.274 128.034 135.142L125.942 129.951H115.119L113.027 135.142C112.001 135.259 110.968 135.313 109.935 135.306C108.722 135.341 107.51 135.192 106.344 134.857L117.257 108.9C118.416 108.719 119.585 108.637 120.758 108.655C121.87 108.64 122.983 108.722 124.077 108.9V108.897ZM117.21 124.88H123.851L121.393 118.831L120.482 116.296L119.664 118.831L117.207 124.88H117.21Z" fill="#8A2943"/>
<path d="M159.819 108.692C160.974 108.695 162.129 108.777 163.273 108.938V135.019C161.124 135.375 158.943 135.485 156.769 135.346L145.494 120.424L144.539 118.872L144.722 120.752V135.136C143.592 135.297 142.451 135.378 141.311 135.382C140.198 135.371 139.09 135.289 137.992 135.136V109.144C139.015 108.866 140.069 108.71 141.131 108.674C142.254 108.603 143.377 108.624 144.496 108.735L155.729 123.985L156.73 125.576L156.547 123.49V108.938C157.63 108.784 158.724 108.703 159.819 108.692Z" fill="#8A2943"/>
<path d="M183.012 135.876C180.939 135.894 178.876 135.555 176.917 134.875C175.116 134.256 173.455 133.291 172.027 132.034C170.646 130.806 169.552 129.292 168.82 127.598C167.306 124.016 167.306 119.978 168.82 116.396C169.552 114.698 170.646 113.181 172.027 111.938C173.451 110.671 175.112 109.691 176.917 109.058C178.872 108.363 180.935 108.018 183.012 108.036C185.093 108.018 187.163 108.36 189.129 109.036C190.933 109.652 192.594 110.617 194.019 111.878C195.389 113.113 196.476 114.626 197.201 116.314C197.968 118.102 198.356 120.031 198.338 121.975C198.349 123.88 197.961 125.767 197.201 127.516C196.469 129.214 195.375 130.731 193.993 131.974C192.562 133.245 190.894 134.224 189.082 134.854C187.134 135.545 185.079 135.89 183.009 135.876H183.012ZM183.012 130.111C185.168 130.204 187.263 129.396 188.788 127.882C190.288 126.284 191.073 124.155 190.969 121.975C191.084 119.775 190.298 117.621 188.788 116.004C185.509 113.06 180.515 113.06 177.236 116.004C175.726 117.621 174.937 119.775 175.055 121.975C174.951 124.155 175.74 126.284 177.236 127.882C178.761 129.396 180.856 130.208 183.012 130.111Z" fill="#8A2943"/>
<path d="M219.852 124.757L226.675 134.854C224.792 135.232 222.869 135.399 220.946 135.346L219.217 135.303L213.215 126.106H212.896L209.577 126.063V135.139C208.465 135.321 207.339 135.403 206.212 135.385C205.053 135.399 203.898 135.317 202.754 135.139V109.307C204.088 109.062 205.681 108.859 207.529 108.695C209.376 108.531 211.059 108.449 212.576 108.449C214.137 108.449 215.698 108.577 217.237 108.837C218.65 109.055 220.01 109.517 221.262 110.205C223.705 111.522 225.172 114.111 225.036 116.866C225.022 117.831 224.867 118.786 224.58 119.708C224.243 120.787 223.662 121.773 222.876 122.588C222.022 123.503 220.996 124.24 219.852 124.757ZM209.574 113.719V121.036L213.165 121.079C214.499 121.182 215.827 120.797 216.892 119.996C217.699 119.305 218.148 118.294 218.119 117.237C218.155 116.197 217.681 115.207 216.846 114.581C215.744 113.854 214.435 113.509 213.115 113.601C211.934 113.601 210.75 113.644 209.567 113.722L209.574 113.719Z" fill="#8A2943"/>
<path d="M247.591 121.733C248.66 122.071 249.654 122.605 250.525 123.306C251.268 123.89 251.838 124.66 252.186 125.535C253.345 128.562 252.24 131.98 249.525 133.771C247.447 135.174 244.255 135.875 239.953 135.875C236.724 135.9 233.499 135.655 230.313 135.138V109.345C233.435 108.786 236.602 108.512 239.774 108.53C247.505 108.53 251.369 111.037 251.369 116.054C251.369 118.834 250.109 120.729 247.591 121.736V121.733ZM240.272 113.433C239.3 113.433 238.238 113.476 237.09 113.558V119.486H240.545C241.664 119.579 242.784 119.297 243.727 118.688C244.416 118.108 244.789 117.236 244.728 116.338C244.75 115.48 244.319 114.676 243.591 114.213C242.586 113.632 241.431 113.362 240.269 113.437L240.272 113.433ZM240.635 130.969C244.061 130.969 245.772 129.826 245.776 127.536C245.811 126.572 245.338 125.656 244.527 125.126C243.437 124.489 242.177 124.19 240.911 124.268H237.09V130.848C238.242 130.93 239.422 130.969 240.635 130.969Z" fill="#8A2943"/>
<path d="M271.239 108.897L282.063 134.853C280.628 135.163 279.164 135.327 277.697 135.345C276.857 135.345 276.021 135.274 275.196 135.142L273.105 129.951H262.278L260.186 135.142C259.16 135.259 258.127 135.313 257.094 135.306C255.881 135.341 254.669 135.192 253.499 134.857L264.412 108.9C265.571 108.719 266.744 108.637 267.917 108.655C269.029 108.64 270.141 108.722 271.236 108.9L271.239 108.897ZM264.373 124.88H271.013L268.556 118.831L267.645 116.296L266.827 118.831L264.369 124.88H264.373Z" fill="#8A2943"/>
<path d="M306.982 108.692C308.137 108.695 309.293 108.777 310.437 108.938V135.019C308.288 135.375 306.107 135.485 303.933 135.346L292.654 120.424L291.7 118.872L291.882 120.752V135.136C290.752 135.297 289.612 135.378 288.471 135.382C287.359 135.371 286.25 135.289 285.152 135.136V109.144C286.175 108.866 287.23 108.71 288.291 108.674C289.414 108.603 290.537 108.624 291.656 108.735L302.889 123.985L303.89 125.576L303.707 123.49V108.938C304.79 108.784 305.884 108.703 306.982 108.692Z" fill="#8A2943"/>
<path d="M330.584 121.161L343.001 134.898C341.296 135.133 339.582 135.243 337.86 135.225L334.265 135.143L325.307 125.088L323.262 126.438V135.147C322.146 135.311 321.024 135.393 319.897 135.393C318.756 135.393 317.615 135.307 316.485 135.147V108.938C317.569 108.774 318.663 108.692 319.761 108.692C320.934 108.692 322.103 108.777 323.262 108.938V119.566C325.253 118.127 327.112 116.511 328.808 114.741C330.53 112.886 332.112 110.903 333.537 108.813C334.599 108.731 335.736 108.692 336.948 108.692C338.47 108.685 339.987 108.767 341.497 108.938C338.462 113.506 334.789 117.622 330.584 121.161Z" fill="#8A2943"/>
<path d="M81.1774 121.503V126.042H76.6105C74.0849 126.046 72.0329 124.016 72.0293 121.51C72.0257 119.003 74.0706 116.966 76.5962 116.963C79.1218 116.959 81.1738 118.989 81.1774 121.496V121.503Z" fill="#8A2943"/>
<path d="M84.4668 101H68.7536C61.7041 101.007 55.9928 106.686 56 113.686V129.314C55.9928 136.314 61.7041 141.993 68.7572 142H97.224V113.686C97.2311 106.69 91.5198 101.007 84.4704 101H84.4668ZM88.1619 132.988H76.6102C70.2137 132.974 65.0441 127.815 65.0584 121.47C65.0692 116.631 68.1329 112.319 72.7213 110.681V107.242C72.7213 107.092 72.8433 106.975 72.9904 106.975C73.0622 106.975 73.1303 107.003 73.1841 107.053L75.0389 108.922C75.1429 109.029 75.3151 109.029 75.4191 108.922C75.4299 108.912 75.4371 108.901 75.4443 108.89L76.3949 107.626C76.4846 107.509 76.6532 107.48 76.7716 107.569C76.7932 107.587 76.8147 107.605 76.829 107.626L77.7833 108.89C77.873 109.008 78.0416 109.033 78.16 108.944C78.1708 108.937 78.1815 108.926 78.1923 108.915L80.047 107.046C80.1511 106.939 80.3233 106.939 80.4273 107.046C80.4775 107.096 80.5062 107.163 80.5062 107.238V110.678C85.1018 112.319 88.1655 116.649 88.1584 121.498V132.985L88.1619 132.988Z" fill="#8A2943"/>
</g>
<defs>
<clipPath id="clip0_643_2362">
<rect width="287" height="41" fill="white" transform="translate(56 101)"/>
</clipPath>
</defs>
</svg>
