<svg width="400" height="240" viewBox="0 0 400 240" fill="none" xmlns="http://www.w3.org/2000/svg">
<path d="M400 224C400 232.8 392.8 240 384 240H16C7.2 240 0 232.8 0 224V16C0 7.2 7.2 0 16 0H384C392.8 0 400 7.2 400 16V224Z" fill="white"/>
<g clip-path="url(#clip0_467_1466)">
<path d="M206.617 143.7C204.332 143.7 202.225 143.349 200.29 142.645C198.359 141.94 196.774 140.888 195.369 139.658C193.963 138.252 192.908 136.67 192.028 134.56C191.324 132.45 190.798 130.167 190.798 127.352V126.121C190.798 123.485 191.148 121.375 192.028 119.267C192.908 117.335 193.96 115.751 195.369 114.345C196.774 112.939 198.531 112.059 200.29 111.358C202.222 110.653 204.157 110.303 206.267 110.303C208.552 110.303 210.484 110.653 212.243 111.183C214.003 111.712 215.405 112.589 216.636 113.644C217.866 114.699 218.746 115.929 219.447 117.335C220.148 118.741 220.502 120.323 220.853 121.904H212.769C212.243 120.498 211.539 119.267 210.659 118.387C209.779 117.508 208.374 117.157 206.442 117.157C205.387 117.157 204.51 117.332 203.455 117.683C202.576 118.034 201.699 118.563 200.995 119.264C200.29 119.965 199.764 121.021 199.414 122.076C199.063 123.131 198.888 124.537 198.888 126.118V127.349C198.888 129.105 199.063 130.511 199.414 131.742C199.764 132.972 200.293 134.028 200.995 134.729C201.699 135.433 202.4 136.135 203.455 136.486C204.335 136.836 205.387 137.012 206.442 137.012C208.023 137.012 209.429 136.661 210.484 135.781C211.539 134.901 212.415 133.849 212.769 132.265H220.853C220.677 134.021 220.148 135.606 219.447 137.012C218.746 138.417 217.691 139.648 216.46 140.703C215.23 141.758 213.824 142.46 212.068 142.989C210.662 143.515 208.728 143.693 206.621 143.693L206.617 143.7Z" fill="black"/>
<path d="M237.374 143.35C235.443 143.35 233.859 143.175 232.628 142.824C231.222 142.474 230.167 141.944 229.288 141.068C228.408 140.191 227.707 139.136 227.356 137.551C227.005 136.145 226.83 134.389 226.83 132.103V100.816H234.738V131.223C234.738 132.278 234.738 133.155 234.914 133.684C235.089 134.389 235.264 134.915 235.618 135.266C235.969 135.616 236.322 135.97 237.024 136.145C237.55 136.321 238.254 136.496 239.134 136.496H240.364C240.715 136.496 241.069 136.496 241.244 136.321V143C241.069 143 240.718 143 240.364 143.175C240.014 143.175 239.66 143.175 239.484 143.35H237.374Z" fill="black"/>
<path d="M247.038 111.008H254.947V142.996H247.038V111.008ZM251.08 107.667C249.674 107.667 248.444 107.316 247.564 106.436C246.685 105.556 246.334 104.504 246.334 103.274C246.334 102.043 246.685 100.988 247.564 100.111C248.444 99.2347 249.674 98.8809 251.08 98.8809C252.486 98.8809 253.716 99.2315 254.596 100.111C255.476 100.991 255.826 102.043 255.826 103.274C255.826 104.504 255.476 105.56 254.596 106.436C253.716 107.313 252.486 107.667 251.08 107.667Z" fill="black"/>
<path d="M276.915 143.7C274.63 143.7 272.523 143.349 270.588 142.645C268.656 141.94 267.072 140.888 265.667 139.658C264.261 138.252 263.206 136.67 262.326 134.56C261.622 132.45 261.096 130.167 261.096 127.352V126.121C261.096 123.485 261.446 121.375 262.326 119.267C263.206 117.335 264.258 115.751 265.667 114.345C267.072 112.939 268.829 112.059 270.588 111.358C272.52 110.653 274.455 110.303 276.565 110.303C278.85 110.303 280.782 110.653 282.541 111.183C284.301 111.712 285.703 112.589 286.934 113.644C288.164 114.699 289.044 115.929 289.745 117.335C290.446 118.741 290.8 120.323 291.151 121.904H283.067C282.541 120.498 281.837 119.267 280.957 118.387C280.077 117.508 278.672 117.157 276.74 117.157C275.685 117.157 274.808 117.332 273.753 117.683C272.874 118.034 271.997 118.563 271.293 119.264C270.588 119.965 270.062 121.021 269.712 122.076C269.361 123.131 269.186 124.537 269.186 126.118V127.349C269.186 129.105 269.361 130.511 269.712 131.742C270.062 132.972 270.591 134.028 271.293 134.729C271.997 135.433 272.698 136.135 273.753 136.486C274.633 136.836 275.685 137.012 276.74 137.012C278.321 137.012 279.727 136.661 280.782 135.781C281.837 134.901 282.713 133.849 283.067 132.265H291.151C290.975 134.021 290.446 135.606 289.745 137.012C289.044 138.417 287.989 139.648 286.758 140.703C285.528 141.758 284.122 142.46 282.366 142.989C280.96 143.515 279.025 143.693 276.918 143.693L276.915 143.7Z" fill="black"/>
<path d="M296.772 142.996V100.812H304.856V124.19L316.455 111.008H325.769L313.819 124.541L327 142.996H317.51L308.372 129.989L304.856 133.856V142.996H296.772Z" fill="black"/>
<path fill-rule="evenodd" clip-rule="evenodd" d="M89.5727 86.5753C77.7981 98.1763 72 109.251 72 120.323V120.498C72 131.57 77.7981 142.821 89.5727 154.422C101.172 166.023 112.417 171.821 123.491 171.997H123.666C134.736 171.997 145.985 166.198 157.584 154.422C180.783 131.22 180.958 109.953 157.584 86.3999C145.81 74.7989 134.564 69 123.491 69C112.417 69 101.172 74.7989 89.5727 86.5753ZM104.863 138.954C92.0334 126.122 92.2087 114.521 104.863 101.868C117.517 89.2117 129.117 89.0364 141.943 101.868C154.773 114.699 154.598 126.3 141.943 138.954C135.616 145.282 129.464 148.444 123.491 148.444C117.339 148.619 111.366 145.457 104.863 138.954Z" fill="url(#paint0_linear_467_1466)"/>
</g>
<defs>
<linearGradient id="paint0_linear_467_1466" x1="89.1711" y1="156.573" x2="154.812" y2="87.7421" gradientUnits="userSpaceOnUse">
<stop stop-color="#0078FF"/>
<stop offset="1" stop-color="#00DEFF"/>
</linearGradient>
<clipPath id="clip0_467_1466">
<rect width="255" height="103" fill="white" transform="translate(72 69)"/>
</clipPath>
</defs>
</svg>
