<svg width="102" height="102" viewBox="0 0 102 102" fill="none" xmlns="http://www.w3.org/2000/svg">
<path d="M80.6172 0H20.7966C9.32828 0 -0.00195312 9.33023 -0.00195312 20.7985V80.6191C-0.00195312 92.0875 9.32828 101.418 20.7966 101.418H80.6172C92.0855 101.418 101.416 92.0875 101.416 80.6191V20.7985C101.416 9.33023 92.0855 0 80.6172 0ZM74.22 28.9199L50.6986 52.4411L27.1774 28.9199H74.22ZM20.3517 66.9581C20.1306 66.5425 20.0043 66.0685 20.0043 65.565V31.8911C20.0043 31.3876 20.1306 30.9136 20.3517 30.498L38.5817 48.728L20.3517 66.9581ZM27.1774 68.5362L42.7836 52.9299L50.6988 60.8451L58.622 52.9218L74.2364 68.5362H27.1774ZM81.4095 65.565C81.4095 66.0685 81.2831 66.5425 81.0621 66.9581L62.8237 48.7199L81.0565 30.4869C81.2816 30.9051 81.4095 31.383 81.4095 31.8911V65.565Z" fill="white"/>
</svg>
