<svg width="400" height="240" viewBox="0 0 400 240" fill="none" xmlns="http://www.w3.org/2000/svg">
<path d="M400 224C400 232.8 392.8 240 384 240H16C7.2 240 0 232.8 0 224V16C0 7.2 7.2 0 16 0H384C392.8 0 400 7.2 400 16V224Z" fill="white"/>
<g clip-path="url(#clip0_643_2361)">
<path d="M335.975 30H64.025C57.9361 30 53 34.9522 53 41.061V198.939C53 205.048 57.9361 210 64.025 210H335.975C342.064 210 347 205.048 347 198.939V41.061C347 34.9522 342.064 30 335.975 30Z" fill="white"/>
<path d="M161.626 35.7478C192.995 35.7478 224.365 35.8584 255.731 35.6741C264.346 35.6224 272.96 35.5745 281.574 35.4676C282.309 35.4565 283.037 35.5635 283.768 35.6298C287.27 35.9358 288.182 38.7453 288.884 41.706C296.292 72.8355 293.94 105.989 280.776 135.268C277.267 143.073 272.982 150.425 268.245 157.511C264.522 163.082 260.465 168.403 256.025 173.439C252.714 177.196 249.234 180.784 245.541 184.135C238.591 190.444 231.215 196.199 222.616 200.152C218.055 202.25 213.274 203.562 208.298 204.263C203.337 204.963 198.354 204.956 193.378 204.845C165.874 204.248 138.37 204.713 110.867 204.587C96.6296 204.525 82.3889 204.572 68.152 204.587C66.6636 204.587 65.1973 204.469 63.7934 204.008C60.8755 203.057 59.1078 200.491 58.9424 197.088C58.8947 196.122 58.9094 195.152 58.9094 194.186C58.9094 144.673 58.9094 95.1603 58.9094 45.6511C58.9094 44.2353 58.9388 42.8306 59.2144 41.4111C59.8796 38.0153 62.5697 35.9911 65.9837 35.7847C67.1708 35.7109 68.3651 35.7441 69.5558 35.7441C100.246 35.7441 130.932 35.7441 161.622 35.7367L161.626 35.7478Z" fill="#2F4653"/>
<path d="M287.95 170.055C289.659 169.591 291.048 168.61 292.353 167.563C297.92 163.101 302.058 157.457 305.59 151.307C318.32 129.126 325.817 104.238 327.287 78.5619C327.438 75.9478 327.453 73.3411 327.534 70.7307C327.545 70.3436 327.445 69.9306 327.783 69.5103C328.794 69.8053 329.705 70.303 330.529 71.033C340.381 79.7934 342.05 96.4292 340.984 108.725C338.456 137.834 322.436 168.901 296.715 183.929C296.123 184.276 295.524 184.611 294.918 184.936C290.945 187.063 286.818 188.734 282.57 190.164C281.769 190.433 280.968 190.706 280.174 190.975C283.676 190.78 288.52 190.168 294.007 188.357C308.677 183.52 320.364 172.603 328.478 159.68C330.474 156.502 332.263 153.213 334.013 149.895C334.119 149.695 334.226 149.485 334.498 149.426C334.821 149.434 334.953 149.692 335.064 149.946C339.139 159.392 338.088 169.078 332.344 177.614C321.036 194.408 297.141 204.433 277.381 204.514C259.168 204.588 240.958 204.566 222.745 204.562C222.171 204.562 221.3 204.864 221.142 204.053C220.973 203.19 221.903 203.294 222.436 203.05C250.068 190.304 270.975 168.068 284.602 140.913C296.443 117.316 302.393 90.6074 300.074 64.1936C299.332 55.7319 297.766 47.3403 295.359 39.1957C295.216 38.7053 295.014 38.226 294.918 37.7246C294.587 35.9695 295.105 35.5271 296.895 35.7041C301.368 36.1428 305.315 37.8057 308.831 40.582C315.487 45.836 318.041 55.3632 319.577 63.3714C322.451 78.3702 319.515 94.9839 316.02 109.658C311.474 128.757 303.8 147.421 292.735 163.662C291.555 165.395 290.192 166.999 288.924 168.665C288.582 169.115 288.274 169.587 287.95 170.048V170.055Z" fill="url(#paint0_linear_643_2361)"/>
<path d="M130.469 107.073C130.44 104.717 129.712 102.346 127.639 101.022C125.622 99.7354 122.939 99.7612 121.351 101.719C121.223 101.878 120.947 102.147 121.028 102.379C121.109 102.611 121.608 102.556 121.818 102.663C122.178 102.844 122.321 103.205 122.31 103.592C122.296 104.042 122.292 108.337 122.274 114.259C117.081 114.229 111.884 114.196 106.692 114.166C106.592 112.872 106.556 111.42 106.648 109.841C106.732 108.385 106.92 106.936 107.202 105.506C107.327 104.879 107.471 104.256 107.632 103.64C107.809 102.962 108.298 102.128 108.246 101.417C108.239 101.321 108.217 101.225 108.158 101.151C108.018 100.978 107.75 101.007 107.537 101.063C106.214 101.402 104.928 102.11 103.913 103.028C103.601 103.308 102.767 104.105 102.013 105.461C100.014 109.052 99.8562 114.141 99.8562 114.141C99.7533 117.429 99.6246 124.095 103.12 131.016C103.12 131.016 105.567 135.868 109.069 137.063C109.76 137.299 109.948 137.144 110.007 137.063C110.278 136.712 109.694 136.108 109.521 135.839C109.202 135.345 108.93 134.821 108.695 134.279C108.209 133.162 107.886 131.978 107.647 130.787C106.916 127.159 106.442 123.487 106.545 119.782H122.274V133.708C122.274 134.629 122.649 135.518 123.497 135.953C124.008 136.215 124.589 136.307 125.159 136.377C126.154 136.502 127.172 136.569 128.157 136.377C128.734 136.266 129.311 136.056 129.741 135.654C130.436 135.009 130.447 134.132 130.447 133.25C130.447 126.256 130.513 119.262 130.502 112.268C130.502 110.531 130.487 108.798 130.469 107.061V107.073Z" fill="url(#paint1_linear_643_2361)"/>
<path d="M108.919 138.81C102.572 136.949 100.095 130.201 98.7388 124.35C98.4448 123.074 98.1618 121.817 97.9928 120.516C97.4856 116.581 97.5077 112.257 98.7792 108.459C97.809 108.677 97.3717 109.513 96.8057 110.192C94.7367 112.67 94.575 115.564 94.4758 118.44C94.2406 125.194 96.6992 129.999 97.2467 131.031C98.4815 133.35 99.8266 134.876 100.223 135.315C101.635 136.882 103.053 137.97 104.141 138.692C103.277 138.479 102.057 138.077 100.753 137.269C99.5436 136.521 98.68 135.688 98.114 135.05C97.2945 133.999 96.7175 133.073 96.3427 132.417C95.3321 130.662 94.0752 128.476 93.4358 125.545C93.2557 124.722 93.1344 123.885 92.811 123.852C92.3443 123.804 91.8188 125.471 91.7048 125.829C91.3373 126.99 91.2455 128.063 91.2491 128.631C91.2749 130.843 92.9286 135.146 96.8792 138.066C96.8792 138.066 100.334 140.617 106.243 140.813C106.486 140.82 107.915 140.787 108.977 140.024C109.499 139.647 109.845 139.072 108.919 138.803V138.81Z" fill="url(#paint2_linear_643_2361)"/>
<path d="M98.7868 108.438C98.7868 108.438 98.7831 108.453 98.7793 108.46C98.7868 108.46 98.7943 108.456 98.8019 108.453L98.7868 108.438Z" fill="url(#paint3_linear_643_2361)"/>
<path d="M98.7861 108.436L98.8046 108.455L98.8783 108.352L98.7861 108.436Z" fill="url(#paint4_linear_643_2361)"/>
<path d="M211.694 106.251C211.72 105.44 211.694 104.238 211.404 102.793C211.375 102.638 211.338 102.269 211.15 101.841C211.051 101.609 210.772 100.993 210.121 100.573C209.772 100.352 209.383 100.219 208.971 100.223C208.684 100.223 208.398 100.245 208.115 100.245C207.718 100.245 207.321 100.256 206.924 100.26C206.152 100.267 205.381 100.249 204.613 100.278C203.922 100.304 203.275 100.54 202.782 101.06C202.198 101.675 201.731 102.553 200.96 104.433C200.831 104.743 200.728 105.008 200.658 105.189C200.364 105.827 196.215 114.853 194.646 117.463C194.532 117.659 194.275 118.075 193.959 118.06C193.639 118.075 193.385 117.659 193.271 117.463C191.706 114.849 187.553 105.827 187.259 105.189C187.189 105.008 187.086 104.747 186.958 104.433C186.186 102.553 185.719 101.675 185.135 101.06C184.646 100.54 183.999 100.304 183.305 100.278C182.533 100.252 181.761 100.267 180.993 100.26C180.596 100.26 180.2 100.249 179.803 100.245C179.516 100.245 179.229 100.226 178.946 100.223C178.535 100.223 178.149 100.352 177.796 100.573C177.146 100.993 176.866 101.609 176.767 101.841C176.58 102.269 176.543 102.638 176.513 102.793C176.227 104.242 176.197 105.444 176.223 106.251C175.922 115.539 175.62 124.819 175.315 134.106C175.326 134.261 175.356 134.475 175.44 134.715C175.914 136.075 177.634 136.743 178.957 136.761C180.295 136.779 181.894 136.142 182.46 134.91C182.467 134.895 182.57 134.656 182.625 134.39C183.018 132.499 183.246 117.268 183.331 110.635C186.954 118.083 189.788 123.65 191.1 126.106C191.364 126.611 191.934 127.625 192.981 127.971C193.283 128.074 193.617 128.13 193.959 128.133C194.3 128.133 194.635 128.074 194.936 127.971C195.984 127.625 196.55 126.611 196.818 126.106C198.126 123.65 200.963 118.083 204.587 110.635C204.671 117.271 204.899 132.499 205.292 134.39C205.348 134.656 205.45 134.895 205.458 134.91C206.024 136.142 207.622 136.779 208.96 136.761C210.287 136.743 212.003 136.075 212.477 134.715C212.562 134.475 212.591 134.261 212.602 134.106C212.301 124.819 211.999 115.539 211.694 106.251Z" fill="url(#paint5_linear_643_2361)"/>
<path d="M147.15 128.232C147.231 128.243 147.312 128.258 147.386 128.28C147.386 128.288 147.386 128.291 147.378 128.299C147.315 128.402 147.102 128.343 147.15 128.232Z" fill="white"/>
<path d="M168.097 101.328C167.344 100.373 166.058 100.336 164.819 100.303C163.647 100.27 162.155 100.23 161.222 101.269C160.703 101.848 160.56 102.53 160.516 102.943C160.494 109.797 160.472 116.648 160.45 123.502C160.461 124.173 160.395 125.438 159.718 126.828C159.006 128.295 157.995 129.128 157.738 129.331C157.738 129.331 156.018 130.695 153.769 130.876C153.544 130.894 153.306 130.902 153.306 130.902C153.247 130.902 153.188 130.902 153.129 130.906C153.07 130.906 153.012 130.906 152.953 130.902C152.953 130.902 152.718 130.894 152.49 130.876C150.241 130.692 148.521 129.331 148.521 129.331C148.26 129.125 147.253 128.295 146.54 126.828C145.864 125.438 145.798 124.173 145.809 123.502C145.787 116.648 145.764 109.797 145.742 102.943C145.698 102.53 145.559 101.848 145.037 101.269C144.103 100.23 142.611 100.27 141.439 100.303C140.204 100.336 138.914 100.373 138.161 101.328C137.569 102.077 137.617 103.002 137.665 103.404V124.922C137.665 126.924 138.238 129.575 140.153 132.093C142.303 134.921 145.357 136.182 146.297 136.532C148.205 137.243 150.083 137.443 150.656 137.498C151.652 137.597 152.501 137.601 153.129 137.583C153.758 137.601 154.607 137.597 155.602 137.498C156.176 137.439 158.054 137.24 159.961 136.532C160.902 136.182 163.956 134.921 166.106 132.093C168.017 129.575 168.594 126.924 168.594 124.922V103.404C168.641 103.002 168.689 102.077 168.097 101.328Z" fill="url(#paint6_linear_643_2361)"/>
<path d="M148.902 137.115C148.969 137.126 149.031 137.145 149.09 137.171L148.983 137.237L148.906 137.115H148.902Z" fill="white"/>
<path d="M253.196 111.682C252.159 108.227 250.042 105.182 247.169 103.014C243.909 100.558 239.866 99.2716 235.805 99.1758C231.745 99.2716 227.702 100.558 224.442 103.014C221.565 105.182 219.448 108.227 218.415 111.682C215.457 121.6 219.907 134.254 230.558 137.052C232.277 137.502 234.045 137.694 235.805 137.646C237.569 137.694 239.337 137.502 241.053 137.052C251.704 134.254 256.154 121.6 253.196 111.682ZM245.287 122.754C244.173 127.451 241.064 132.499 235.802 132.554C230.539 132.499 227.43 127.451 226.317 122.754C225.244 118.23 225.442 112.903 227.967 108.865C229.716 106.067 232.693 104.411 235.798 104.389C238.907 104.411 241.88 106.07 243.63 108.865C246.154 112.903 246.353 118.23 245.28 122.754H245.287Z" fill="url(#paint7_linear_643_2361)"/>
</g>
<defs>
<linearGradient id="paint0_linear_643_2361" x1="207.795" y1="145.887" x2="344.662" y2="104.01" gradientUnits="userSpaceOnUse">
<stop offset="0.33" stop-color="#9C8837"/>
<stop offset="0.56" stop-color="#F7E59E"/>
<stop offset="0.6" stop-color="#F0DE96"/>
<stop offset="0.67" stop-color="#DECB80"/>
<stop offset="0.75" stop-color="#C0AC5D"/>
<stop offset="0.79" stop-color="#B39F4D"/>
</linearGradient>
<linearGradient id="paint1_linear_643_2361" x1="122.943" y1="122.713" x2="97.6906" y2="103.668" gradientUnits="userSpaceOnUse">
<stop offset="0.33" stop-color="#9C8837"/>
<stop offset="0.56" stop-color="#F7E59E"/>
<stop offset="0.6" stop-color="#F0DE96"/>
<stop offset="0.67" stop-color="#DECB80"/>
<stop offset="0.75" stop-color="#C0AC5D"/>
<stop offset="0.79" stop-color="#B39F4D"/>
</linearGradient>
<linearGradient id="paint2_linear_643_2361" x1="113.531" y1="135.186" x2="88.2787" y2="116.141" gradientUnits="userSpaceOnUse">
<stop offset="0.33" stop-color="#9C8837"/>
<stop offset="0.56" stop-color="#F7E59E"/>
<stop offset="0.6" stop-color="#F0DE96"/>
<stop offset="0.67" stop-color="#DECB80"/>
<stop offset="0.75" stop-color="#C0AC5D"/>
<stop offset="0.79" stop-color="#B39F4D"/>
</linearGradient>
<linearGradient id="paint3_linear_643_2361" x1="121.511" y1="125.68" x2="95.6921" y2="106.174" gradientUnits="userSpaceOnUse">
<stop offset="0.33" stop-color="#9C8837"/>
<stop offset="0.56" stop-color="#F7E59E"/>
<stop offset="0.6" stop-color="#F0DE96"/>
<stop offset="0.67" stop-color="#DECB80"/>
<stop offset="0.75" stop-color="#C0AC5D"/>
<stop offset="0.79" stop-color="#B39F4D"/>
</linearGradient>
<linearGradient id="paint4_linear_643_2361" x1="121.103" y1="125.249" x2="95.8313" y2="106.118" gradientUnits="userSpaceOnUse">
<stop offset="0.33" stop-color="#9C8837"/>
<stop offset="0.56" stop-color="#F7E59E"/>
<stop offset="0.6" stop-color="#F0DE96"/>
<stop offset="0.67" stop-color="#DECB80"/>
<stop offset="0.75" stop-color="#C0AC5D"/>
<stop offset="0.79" stop-color="#B39F4D"/>
</linearGradient>
<linearGradient id="paint5_linear_643_2361" x1="216.266" y1="130.515" x2="177.06" y2="109.79" gradientUnits="userSpaceOnUse">
<stop offset="0.33" stop-color="#9C8837"/>
<stop offset="0.56" stop-color="#F7E59E"/>
<stop offset="0.6" stop-color="#F0DE96"/>
<stop offset="0.67" stop-color="#DECB80"/>
<stop offset="0.75" stop-color="#C0AC5D"/>
<stop offset="0.79" stop-color="#B39F4D"/>
</linearGradient>
<linearGradient id="paint6_linear_643_2361" x1="172.405" y1="128.586" x2="133.183" y2="104.109" gradientUnits="userSpaceOnUse">
<stop offset="0.33" stop-color="#9C8837"/>
<stop offset="0.56" stop-color="#F7E59E"/>
<stop offset="0.6" stop-color="#F0DE96"/>
<stop offset="0.67" stop-color="#DECB80"/>
<stop offset="0.75" stop-color="#C0AC5D"/>
<stop offset="0.79" stop-color="#B39F4D"/>
</linearGradient>
<linearGradient id="paint7_linear_643_2361" x1="263.419" y1="134.597" x2="214.66" y2="106.389" gradientUnits="userSpaceOnUse">
<stop offset="0.33" stop-color="#9C8837"/>
<stop offset="0.56" stop-color="#F7E59E"/>
<stop offset="0.6" stop-color="#F0DE96"/>
<stop offset="0.67" stop-color="#DECB80"/>
<stop offset="0.75" stop-color="#C0AC5D"/>
<stop offset="0.79" stop-color="#B39F4D"/>
</linearGradient>
<clipPath id="clip0_643_2361">
<rect width="294" height="180" fill="white" transform="translate(53 30)"/>
</clipPath>
</defs>
</svg>
