<svg width="102" height="102" viewBox="0 0 102 102" fill="none" xmlns="http://www.w3.org/2000/svg">
<rect width="102" height="102" rx="23" fill="white"/>
<path d="M51.5 23.8735C60.1145 23.8735 61.2892 23.8735 64.8133 23.8735C67.9458 23.8735 69.5121 24.6566 70.6868 25.0482C72.253 25.8313 73.4277 26.2229 74.6024 27.3976C75.7771 28.5723 76.5602 29.747 76.9518 31.3133C77.3434 32.488 77.7349 34.0542 78.1265 37.1868C78.1265 40.7108 78.1265 41.494 78.1265 50.5C78.1265 59.506 78.1265 60.2892 78.1265 63.8133C78.1265 66.9458 77.3434 68.5121 76.9518 69.6868C76.1687 71.253 75.7771 72.4277 74.6024 73.6024C73.4277 74.7771 72.253 75.5602 70.6868 75.9518C69.5121 76.3434 67.9458 76.7349 64.8133 77.1265C61.2892 77.1265 60.506 77.1265 51.5 77.1265C42.494 77.1265 41.7108 77.1265 38.1868 77.1265C35.0542 77.1265 33.488 76.3434 32.3133 75.9518C30.747 75.1687 29.5723 74.7771 28.3976 73.6024C27.2229 72.4277 26.4398 71.253 26.0482 69.6868C25.6566 68.5121 25.2651 66.9458 24.8735 63.8133C24.8735 60.2892 24.8735 59.506 24.8735 50.5C24.8735 41.494 24.8735 40.7108 24.8735 37.1868C24.8735 34.0542 25.6566 32.488 26.0482 31.3133C26.8313 29.747 27.2229 28.5723 28.3976 27.3976C29.5723 26.2229 30.747 25.4398 32.3133 25.0482C33.488 24.6566 35.0542 24.2651 38.1868 23.8735C41.7108 23.8735 42.8855 23.8735 51.5 23.8735ZM51.5 18C42.494 18 41.7108 18 38.1868 18C34.6627 18 32.3133 18.7831 30.3554 19.5663C28.3976 20.3494 26.4398 21.5241 24.4819 23.4819C22.5241 25.4398 21.741 27.006 20.5663 29.3554C19.7831 31.3133 19.3916 33.6627 19 37.1868C19 40.7108 19 41.8855 19 50.5C19 59.506 19 60.2892 19 63.8133C19 67.3374 19.7831 69.6867 20.5663 71.6446C21.3494 73.6024 22.5241 75.5602 24.4819 77.5181C26.4398 79.4759 28.006 80.259 30.3554 81.4337C32.3133 82.2169 34.6627 82.6084 38.1868 83C41.7108 83 42.8855 83 51.5 83C60.1145 83 61.2892 83 64.8133 83C68.3374 83 70.6867 82.2169 72.6446 81.4337C74.6024 80.6506 76.5602 79.4759 78.5181 77.5181C80.4759 75.5602 81.259 73.994 82.4337 71.6446C83.2169 69.6867 83.6084 67.3374 84 63.8133C84 60.2892 84 59.1145 84 50.5C84 41.8855 84 40.7108 84 37.1868C84 33.6627 83.2169 31.3133 82.4337 29.3554C81.6506 27.3976 80.4759 25.4398 78.5181 23.4819C76.5602 21.5241 74.994 20.741 72.6446 19.5663C70.6867 18.7831 68.3374 18.3916 64.8133 18C61.2892 18 60.506 18 51.5 18Z" fill="#1E1E1E"/>
<path d="M51.5 33.6627C42.1024 33.6627 34.6627 41.1024 34.6627 50.5C34.6627 59.8976 42.1024 67.3374 51.5 67.3374C60.8976 67.3374 68.3374 59.8976 68.3374 50.5C68.3374 41.1024 60.8976 33.6627 51.5 33.6627ZM51.5 61.4639C45.6265 61.4639 40.5361 56.7651 40.5361 50.5C40.5361 44.6265 45.2349 39.5361 51.5 39.5361C57.3735 39.5361 62.4639 44.2349 62.4639 50.5C62.4639 56.3735 57.3735 61.4639 51.5 61.4639Z" fill="#1E1E1E"/>
<path d="M68.7289 37.1868C70.8915 37.1868 72.6446 35.4336 72.6446 33.2711C72.6446 31.1085 70.8915 29.3554 68.7289 29.3554C66.5664 29.3554 64.8133 31.1085 64.8133 33.2711C64.8133 35.4336 66.5664 37.1868 68.7289 37.1868Z" fill="#1E1E1E"/>
</svg>
