<svg width="400" height="240" viewBox="0 0 400 240" fill="none" xmlns="http://www.w3.org/2000/svg">
<path d="M400 224C400 232.8 392.8 240 384 240H16C7.2 240 0 232.8 0 224V16C0 7.2 7.2 0 16 0H384C392.8 0 400 7.2 400 16V224Z" fill="white"/>
<path d="M248 200C292.183 200 328 164.183 328 120C328 75.8172 292.183 40 248 40C203.817 40 168 75.8172 168 120C168 164.183 203.817 200 248 200Z" fill="#FFA914"/>
<path d="M168 120C168 117.604 168.107 115.232 168.314 112.889H231.668C231.238 108.008 230.368 103.256 229.102 98.666H170.878C172.245 93.715 174.082 88.961 176.327 84.444H223.664C221.143 79.373 218.1 74.611 214.603 70.222H185.373C189.623 64.883 194.54 60.1 200 55.999C186.629 45.955 170.011 40 152 40C107.817 40 72 75.817 72 120C72 164.184 107.817 200 152 200C170.011 200 186.629 194.045 200 184.001C194.541 179.9 189.623 175.117 185.373 169.777H214.603C218.099 165.388 221.142 160.627 223.664 155.554H176.327C174.082 151.037 172.245 146.283 170.878 141.332H229.102C230.37 136.742 231.239 131.99 231.668 127.108H168.314C168.107 124.768 168 122.396 168 120Z" fill="#EF4136"/>
</svg>
