<svg width="400" height="240" viewBox="0 0 400 240" fill="none" xmlns="http://www.w3.org/2000/svg">
<path d="M400 224C400 232.8 392.8 240 384 240H16C7.2 240 0 232.8 0 224V16C0 7.2 7.2 0 16 0H384C392.8 0 400 7.2 400 16V224Z" fill="white"/>
<g clip-path="url(#clip0_467_1476)">
<path d="M123.489 95.9256C122.644 94.5618 121.545 93.3745 120.246 92.4279C118.939 91.5326 117.502 90.8394 115.989 90.3645C114.344 89.8286 112.647 89.4692 110.925 89.2959C108.913 89.097 106.892 89.0039 104.867 89.0136H87.3484C85.671 88.8563 84.1832 90.0853 84.0258 91.7572C84.0258 91.7861 84.0194 91.8182 84.0194 91.8471V120.416C86.4486 125.621 90.4814 129.912 95.5295 132.662V126.959C95.3689 125.111 96.7377 123.481 98.5886 123.32H98.595H103.852C111.024 123.32 116.497 121.822 120.269 118.825C124.041 115.828 125.957 111.383 126.014 105.495C126.021 103.797 125.822 102.106 125.42 100.457C125.018 98.8554 124.369 97.3247 123.492 95.9256H123.489ZM113.222 110.533C112.612 111.582 111.702 112.429 110.613 112.965C109.43 113.53 108.155 113.867 106.847 113.963C105.411 114.143 103.968 114.229 102.519 114.226H97.4736C96.2654 114.226 95.5102 113.248 95.5102 111.813V100.091C95.446 99.1282 96.1754 98.2938 97.1394 98.2264C97.2519 98.22 97.3611 98.2232 97.4704 98.2361H102.515C104.151 98.2361 105.693 98.2842 107.139 98.3773C108.431 98.4382 109.697 98.7495 110.87 99.2886C111.95 99.7699 112.853 100.575 113.444 101.599C114.115 102.969 114.421 104.487 114.337 106.008C114.373 107.587 113.984 109.143 113.216 110.523V110.539L113.222 110.533ZM95.5456 134.378C91.2269 132.822 87.2938 130.351 84.0194 127.136V140.87C83.8683 141.942 84.617 142.934 85.6903 143.081C85.716 143.084 85.7449 143.088 85.7706 143.091H93.6883C95.7898 143.091 95.5456 140.851 95.5456 140.851V134.378ZM204.375 103.974H197.543C196.197 103.887 194.982 104.779 194.67 106.092L186.734 127.925C186.734 127.925 179.725 108.033 179.202 106.493C178.896 105.029 177.614 103.974 176.117 103.954H169.828C167.585 103.954 167.585 105.703 167.884 106.387C168.183 107.07 176.785 130.618 180.146 139.628C180.676 140.739 181.046 141.916 181.248 143.126C181.03 144.323 180.577 145.465 179.918 146.486C179.661 146.919 179.369 147.33 179.041 147.712C185.522 145.786 193.057 138.772 196.84 131.195C200.66 120.699 205.686 106.701 205.914 105.986C206.158 104.885 206.158 103.974 204.372 103.974H204.375ZM173.925 149.846C173.34 149.83 172.756 149.785 172.174 149.704C171.454 149.598 170.089 149.704 170.089 150.93V156.18C170.089 158.192 171.069 158.333 171.576 158.471C173.199 158.827 174.857 159.004 176.515 158.998C178.479 159.049 180.426 158.648 182.209 157.826C183.838 157.005 185.288 155.862 186.467 154.466C187.804 152.939 188.935 151.248 189.831 149.428C190.802 147.493 191.724 145.353 192.598 143.007L193.613 140.225C191.582 142.237 182.611 150.686 173.922 149.849L173.925 149.846ZM163.588 110.254C163.215 109.371 162.707 108.55 162.081 107.821C161.448 107.147 160.728 106.56 159.944 106.072C159.096 105.495 158.193 105.004 157.245 104.603C156.281 104.23 155.291 103.932 154.285 103.711C153.132 103.457 151.959 103.287 150.783 103.204C149.52 103.075 148.109 103.011 146.544 103.011C136.104 103.011 130.16 106.3 128.71 112.879C128.476 113.816 129.045 114.765 129.983 115.003C130.073 115.025 130.163 115.041 130.253 115.048H136.683C138.434 115.048 138.434 114.505 139.099 113C139.392 112.182 139.915 111.463 140.606 110.937C142.248 109.878 144.192 109.381 146.143 109.519C147.961 109.333 149.79 109.785 151.31 110.796C152.47 111.877 153.157 113.376 153.218 114.961C153.218 117.13 152.553 118.565 149.854 118.565C143.46 118.337 136.593 119.056 132.721 121.276C128.842 123.641 126.529 127.9 126.66 132.437C126.615 134.173 126.969 135.896 127.695 137.475C128.376 138.849 129.366 140.045 130.587 140.973C131.866 142.016 133.344 142.789 134.931 143.248C136.724 143.733 138.575 143.967 140.433 143.948C142.933 143.986 145.42 143.633 147.807 142.898C149.918 142.035 151.914 140.912 153.745 139.558V140.784C153.745 141.99 154.112 143.075 155.497 143.075H162.942C164.449 143.075 164.799 142.006 164.799 140.678V117.775C164.809 116.347 164.709 114.919 164.501 113.507C164.337 112.388 164.028 111.296 163.588 110.254ZM153.408 132.752C153.408 132.752 151.48 136.776 144.649 136.776C143.01 136.849 141.39 136.403 140.025 135.498C138.803 134.552 138.142 133.05 138.273 131.51C138.119 129.427 139.269 127.463 141.165 126.578C143.929 125.519 146.879 125.024 149.838 125.124C151.57 124.864 153.186 126.054 153.447 127.784C153.472 127.948 153.482 128.111 153.482 128.275L153.411 132.755L153.408 132.752Z" fill="#333333"/>
<path d="M323.679 118.022C325.44 120.849 325.44 124.43 323.679 127.261C321.928 129.921 312.378 140.103 309.225 143.373C306.491 146.206 302.795 149.075 299.135 149.075H223.294C213.028 149.075 212.414 145.577 212.414 137.773V105.95C212.414 97.9534 214.779 95.627 221.803 95.627H299.309C302.937 95.627 306.176 97.4817 309.82 101.227C313.007 104.429 322.416 116.132 323.679 118.022Z" fill="#33CCCC"/>
<path d="M229.638 107.928V107.735C229.638 106.702 229.638 105.707 227.886 105.707H221.527C220.039 105.707 219.969 106.512 219.969 107.77V116.168C222.478 112.68 225.795 109.853 229.638 107.928Z" fill="white"/>
<path d="M272.227 138.297V137.842V117.584C272.227 109.106 268.478 104.863 260.981 104.863C258.895 104.889 256.855 105.495 255.094 106.612C253.153 107.822 251.421 109.333 249.962 111.092C249.3 109.192 248.018 107.572 246.318 106.49C244.387 105.428 242.199 104.911 239.995 105.004C236.752 105.017 233.603 106.099 231.042 108.085C230.483 108.643 219.953 116.833 219.953 125.372V138.336C219.953 138.737 219.744 140.313 221.511 140.313H228.115C230.165 140.313 229.972 138.965 229.972 138.406V117.413C231.074 115.928 233.336 112.375 237.067 112.375C238.282 112.266 239.461 112.821 240.152 113.829C240.901 115.321 241.228 116.993 241.097 118.659V135.018V138.378C241.097 138.779 240.888 140.354 242.655 140.354H249.191C251.241 140.354 251.048 139.006 251.048 138.448V137.992V117.349C252.241 115.864 254.551 112.311 258.143 112.311C259.371 112.212 260.563 112.764 261.28 113.765C262.041 115.254 262.375 116.926 262.244 118.594V134.954V138.313C262.244 138.714 262.035 140.29 263.802 140.29H270.405C272.472 140.184 272.227 138.856 272.227 138.313V138.297Z" fill="white"/>
<path d="M308.647 130.059C306.343 136.242 300.286 140.218 293.686 139.875C283.596 139.875 276.867 133.017 276.867 122.73C276.867 112.442 283.875 105.234 293.336 105.234C302.796 105.234 309.103 111.777 309.505 122.328C309.505 123.676 309.171 124.867 307.474 124.867H286.067C286.208 130.518 288.924 133.614 293.756 133.614C296.379 133.678 298.798 132.218 299.958 129.869C300.411 129.208 301.17 128.82 301.973 128.836H307.49C308.098 128.807 308.615 129.276 308.644 129.886C308.647 129.969 308.644 130.049 308.628 130.133L308.644 130.062L308.647 130.059ZM293.371 111.758C289.357 111.758 286.642 114.54 286.048 119.123H300.414C300.048 115.115 297.873 111.758 293.371 111.758Z" fill="white"/>
</g>
<defs>
<clipPath id="clip0_467_1476">
<rect width="241" height="70" fill="white" transform="translate(84 89)"/>
</clipPath>
</defs>
</svg>
