<svg width="400" height="240" viewBox="0 0 400 240" fill="none" xmlns="http://www.w3.org/2000/svg">
<path d="M400 224C400 232.8 392.8 240 384 240H16C7.2 240 0 232.8 0 224V16C0 7.2 7.2 0 16 0H384C392.8 0 400 7.2 400 16V224Z" fill="white"/>
<path d="M168.82 99.8105H155.007C154.062 99.8105 153.258 100.49 153.111 101.414L147.524 136.476C147.413 137.168 147.954 137.792 148.663 137.792H155.258C156.203 137.792 157.007 137.112 157.154 136.186L158.661 126.729C158.807 125.804 159.612 125.124 160.556 125.124H164.928C174.027 125.124 179.279 120.765 180.65 112.128C181.268 108.35 180.676 105.381 178.889 103.301C176.926 101.018 173.444 99.8105 168.82 99.8105ZM170.414 112.616C169.659 117.523 165.872 117.523 162.21 117.523H160.125L161.588 108.36C161.675 107.806 162.159 107.398 162.725 107.398H163.68C166.175 107.398 168.528 107.398 169.743 108.806C170.469 109.645 170.691 110.893 170.414 112.616Z" fill="#253B80"/>
<path d="M209.671 111.961H203.098C202.538 111.961 202.055 112.385 201.968 112.961L201.677 114.866L201.218 114.176C199.795 112.036 196.622 111.32 193.455 111.32C186.193 111.32 179.99 117.02 178.782 125.016C178.153 129.005 179.046 132.819 181.23 135.478C183.233 137.924 186.098 138.943 189.508 138.943C195.36 138.943 198.605 135.044 198.605 135.044L198.312 136.936C198.202 137.66 198.739 138.309 199.44 138.309H205.36C206.301 138.309 207.096 137.602 207.244 136.639L210.796 113.329C210.909 112.612 210.373 111.961 209.671 111.961ZM200.509 125.216C199.875 129.107 196.895 131.719 193.094 131.719C191.186 131.719 189.661 131.084 188.681 129.882C187.71 128.689 187.341 126.99 187.65 125.097C188.242 121.24 191.272 118.543 195.015 118.543C196.881 118.543 198.398 119.185 199.398 120.398C200.399 121.622 200.796 123.332 200.509 125.216Z" fill="#253B80"/>
<path d="M245.328 112.473H238.628C237.989 112.473 237.388 112.788 237.026 113.315L227.785 126.813L223.868 113.841C223.622 113.03 222.866 112.473 222.011 112.473H215.427C214.627 112.473 214.072 113.248 214.326 113.995L221.706 135.471L214.768 145.184C214.222 145.949 214.772 147.001 215.714 147.001H222.406C223.042 147.001 223.636 146.694 223.996 146.177L246.281 114.28C246.814 113.516 246.267 112.473 245.328 112.473Z" fill="#253B80"/>
<path d="M267.802 99.8105H253.986C253.043 99.8105 252.239 100.49 252.092 101.414L246.505 136.476C246.394 137.168 246.935 137.792 247.64 137.792H254.729C255.388 137.792 255.952 137.316 256.055 136.668L257.64 126.729C257.786 125.804 258.591 125.124 259.535 125.124H263.906C273.007 125.124 278.257 120.765 279.63 112.128C280.25 108.35 279.654 105.381 277.867 103.301C275.905 101.018 272.425 99.8105 267.802 99.8105ZM269.396 112.616C268.642 117.523 264.855 117.523 261.191 117.523H259.109L260.573 108.36C260.66 107.806 261.14 107.398 261.708 107.398H262.663C265.156 107.398 267.511 107.398 268.727 108.806C269.452 109.645 269.672 110.893 269.396 112.616Z" fill="#179BD7"/>
<path d="M308.645 111.961H302.076C301.512 111.961 301.033 112.385 300.948 112.961L300.657 114.866L300.196 114.176C298.773 112.036 295.602 111.32 292.435 111.32C285.172 111.32 278.971 117.02 277.762 125.016C277.136 129.005 278.025 132.819 280.209 135.478C282.216 137.924 285.078 138.943 288.487 138.943C294.34 138.943 297.585 135.044 297.585 135.044L297.292 136.936C297.181 137.66 297.719 138.309 298.424 138.309H304.342C305.279 138.309 306.078 137.602 306.225 136.639L309.779 113.329C309.887 112.612 309.349 111.961 308.645 111.961ZM299.483 125.216C298.853 129.107 295.869 131.719 292.068 131.719C290.163 131.719 288.634 131.084 287.655 129.882C286.683 128.689 286.318 126.99 286.623 125.097C287.219 121.24 290.246 118.543 293.988 118.543C295.855 118.543 297.372 119.185 298.372 120.398C299.377 121.622 299.774 123.332 299.483 125.216Z" fill="#179BD7"/>
<path d="M316.869 100.774L310.958 136.476C310.843 137.168 311.407 137.792 312.142 137.792H318.084C319.072 137.792 319.91 137.112 320.062 136.186L325.891 101.128C326.006 100.436 325.442 99.8105 324.707 99.8105H318.053C317.465 99.8125 316.96 100.22 316.869 100.774Z" fill="#179BD7"/>
<path d="M89.767 144.699L90.8177 138.039L88.4773 137.985H77.3018L85.0682 88.84C85.0923 88.6917 85.1706 88.5533 85.2852 88.4551C85.3997 88.3569 85.5463 88.3027 85.699 88.3027H104.543C110.798 88.3027 115.115 89.6019 117.369 92.1661C118.426 93.369 119.099 94.626 119.424 96.0093C119.766 97.4609 119.772 99.195 119.439 101.31L119.414 101.465V102.82L120.471 103.417C121.361 103.888 122.068 104.428 122.611 105.045C123.515 106.074 124.099 107.381 124.346 108.931C124.601 110.524 124.517 112.421 124.099 114.568C123.617 117.038 122.838 119.189 121.785 120.95C120.817 122.572 119.583 123.917 118.119 124.959C116.721 125.95 115.059 126.701 113.181 127.183C111.361 127.656 109.286 127.894 107.009 127.894H105.543C104.494 127.894 103.476 128.271 102.676 128.947C101.875 129.637 101.344 130.579 101.182 131.609L101.071 132.209L99.2149 143.947L99.1305 144.378C99.1084 144.515 99.0703 144.583 99.014 144.629C98.9638 144.671 98.8915 144.699 98.8212 144.699H89.767Z" fill="#253B80"/>
<path d="M121.689 102.113C121.633 102.47 121.568 102.835 121.495 103.21C118.999 115.874 110.457 120.249 99.5476 120.249H93.9931C92.659 120.249 91.5347 121.207 91.3268 122.507L88.483 140.326L87.6776 145.377C87.5424 146.23 88.2085 147 89.0804 147H98.932C100.099 147 101.09 146.163 101.273 145.026L101.37 144.531L103.225 132.902L103.344 132.264C103.526 131.123 104.519 130.286 105.685 130.286H107.159C116.704 130.286 124.176 126.457 126.36 115.378C127.272 110.75 126.8 106.885 124.386 104.167C123.655 103.348 122.749 102.668 121.689 102.113Z" fill="#179BD7"/>
<path d="M119.516 100.724C119.125 100.611 118.722 100.508 118.309 100.415C117.894 100.325 117.468 100.245 117.031 100.175C115.498 99.9278 113.818 99.8105 112.019 99.8105H96.8313C96.4574 99.8105 96.1021 99.8949 95.784 100.047C95.0837 100.383 94.5631 101.043 94.4371 101.852L91.2062 122.235L91.1133 122.829C91.3261 121.488 92.4767 120.5 93.8422 120.5H99.5272C110.693 120.5 119.435 115.984 121.99 102.918C122.067 102.531 122.131 102.154 122.189 101.786C121.542 101.444 120.842 101.152 120.088 100.903C119.902 100.841 119.71 100.782 119.516 100.724Z" fill="#222D65"/>
<path d="M94.5682 101.523C94.6924 100.73 95.2053 100.083 95.8953 99.7565C96.2108 99.6073 96.5589 99.5246 96.9273 99.5246H111.891C113.664 99.5246 115.319 99.6395 116.829 99.8815C117.261 99.95 117.68 100.029 118.089 100.117C118.496 100.208 118.893 100.309 119.278 100.42C119.469 100.476 119.659 100.535 119.844 100.593C120.587 100.837 121.277 101.125 121.914 101.458C122.663 96.7261 121.908 93.5043 119.325 90.5868C116.477 87.375 111.338 86 104.761 86H85.6695C84.3261 86 83.1802 86.9678 82.9726 88.2843L75.0203 138.215C74.8636 139.203 75.633 140.094 76.6385 140.094H88.4254L91.3849 121.495L94.5682 101.523Z" fill="#253B80"/>
</svg>
