<svg width="102" height="102" viewBox="0 0 102 102" fill="none" xmlns="http://www.w3.org/2000/svg">
<rect width="102" height="102" rx="23" fill="white"/>
<path d="M79.7311 24.0304C78.6853 23.0722 77.199 22.7529 75.8518 23.1969L18.6955 42.038C17.1379 42.5514 16.0815 43.9419 16.0045 45.5801C15.9275 47.2184 16.8486 48.7019 18.3511 49.3595L32.4863 55.544C32.5552 55.8639 36.613 74.6841 36.751 75.3239C36.9281 76.1455 37.3452 76.8775 38.2287 77.1026C39.1224 77.3302 39.7538 76.8418 40.4206 76.3426C40.7917 76.0648 50.9101 68.4882 50.9101 68.4882L63.1731 78.523C63.8874 79.1078 64.7604 79.4128 65.6505 79.4128C66.0743 79.4126 66.5022 79.3436 66.9184 79.2024C68.209 78.7648 69.1658 77.7114 69.4778 76.3847L80.8999 27.8219C81.2246 26.4412 80.7769 24.9885 79.7311 24.0304ZM41.3343 59.0878C41.3273 59.1043 41.3205 59.123 41.314 59.1454L38.9495 67.4064L36.3107 55.168L54.4556 45.0867L41.7695 58.3513C41.5697 58.5603 41.4227 58.813 41.3343 59.0878ZM42.0848 70.3271L43.1588 66.5747L44.186 62.9857L47.8667 65.9977L42.0848 70.3271ZM77.1835 26.9477L65.7615 75.5105C65.7558 75.5346 65.7482 75.5679 65.6923 75.5868C65.6369 75.6056 65.61 75.5841 65.591 75.5684L52.1723 64.5878C52.172 64.5875 52.1717 64.5872 52.1713 64.5869L45.9542 59.4993L65.9281 38.6145C66.5804 37.9323 66.6362 36.8759 66.0595 36.1287C65.4824 35.3814 64.4462 35.168 63.6213 35.6266L34.0456 52.059L19.8815 45.8617C19.8383 45.8429 19.8146 45.8323 19.818 45.7593C19.8214 45.6866 19.8461 45.6783 19.8907 45.6636L77.047 26.8226C77.0747 26.8136 77.1059 26.8032 77.1519 26.8451C77.1979 26.8872 77.1903 26.9192 77.1835 26.9477Z" fill="#1E1E1E"/>
</svg>
