<svg width="400" height="240" viewBox="0 0 400 240" fill="none" xmlns="http://www.w3.org/2000/svg">
<path d="M400 224C400 232.8 392.8 240 384 240H16C7.2 240 0 232.8 0 224V16C0 7.2 7.2 0 16 0H384C392.8 0 400 7.2 400 16V224Z" fill="white"/>
<g clip-path="url(#clip0_467_1455)">
<path fill-rule="evenodd" clip-rule="evenodd" d="M250.521 107.226C250.521 126.469 246.146 140.808 237.401 150.152C228.657 159.497 215.15 164.166 196.937 164.166C179.921 164.166 167.009 159.494 158.208 150.152C149.404 140.81 145 126.721 145.003 107.884V44.6858C145.008 43.2038 146.201 42.0052 147.673 42H178.527C180.001 42.0052 181.194 43.2038 181.199 44.6858V109.265C181.199 116.955 182.614 122.876 185.496 127.051C190.683 133.962 200.463 135.337 207.339 130.124C208.372 129.342 209.303 128.434 210.11 127.42C212.927 123.502 214.33 117.728 214.322 110.097V98.004H250.521V107.224V107.226Z" fill="#203E7A"/>
<path fill-rule="evenodd" clip-rule="evenodd" d="M247.724 90.9424H214.327V44.8106C214.332 43.2584 215.582 42.0026 217.124 42H222.122C222.132 57.7508 234.84 70.5142 250.513 70.5142H250.521V90.9424H247.722H247.724Z" fill="#203E7A"/>
<path fill-rule="evenodd" clip-rule="evenodd" d="M229.236 42.0006H247.723C249.268 42.0058 250.518 43.2616 250.52 44.8112V63.4142C238.764 63.4142 229.233 53.8358 229.233 42.0214V41.998L229.236 42.0006Z" fill="#F4821F"/>
<path fill-rule="evenodd" clip-rule="evenodd" d="M151.064 194.859C155.149 194.859 157.121 192.574 157.121 189.217V181.128H154.197V189.136C154.197 190.884 152.787 192.301 151.049 192.301C149.31 192.301 147.9 190.884 147.9 189.136V181.128H145V189.243C145 192.558 146.971 194.864 151.056 194.864L151.062 194.859H151.064ZM174.765 194.617V192.09H168.287L174.625 183.429V181.123H164.543V183.653H170.881L164.543 192.288V194.607L174.765 194.617ZM188.422 194.859C190.769 194.914 192.944 193.629 194.036 191.541L191.573 190.348C190.963 191.539 189.747 192.293 188.414 192.308C185.98 192.186 184.104 190.106 184.226 187.66C184.337 185.382 186.148 183.562 188.414 183.45C189.744 183.474 190.957 184.225 191.573 185.411L194.036 184.196C192.944 182.111 190.766 180.832 188.422 180.9C184.588 180.785 181.388 183.814 181.271 187.667C181.157 191.521 184.171 194.737 188.005 194.854C188.143 194.859 188.282 194.859 188.419 194.854L188.422 194.859ZM213.388 194.617L208.216 181.128H204.635L199.443 194.617H202.703L203.549 192.332H209.305L210.13 194.617H213.39H213.388ZM208.519 189.805H204.333L206.426 183.999L208.519 189.805ZM232.682 198.002L227.756 189.485C229.573 189.045 230.812 187.355 230.695 185.481C230.783 183.162 228.985 181.212 226.678 181.123C226.515 181.118 226.352 181.121 226.189 181.134H219.907V194.622H222.766V189.828H224.859L229.402 198H232.682V198.002ZM225.764 187.301H222.766V183.661H225.754C226.755 183.554 227.65 184.285 227.756 185.288C227.862 186.292 227.135 187.194 226.137 187.301C226.01 187.314 225.883 187.314 225.757 187.301H225.767H225.764ZM243.406 194.622C247.612 194.622 250.531 191.952 250.531 187.888C250.531 183.825 247.607 181.134 243.406 181.134H238.113V194.622H243.406ZM243.406 192.095H240.971V183.663H243.406C245.569 183.502 247.452 185.135 247.612 187.309C247.625 187.501 247.625 187.696 247.612 187.888C247.706 190.117 245.985 191.999 243.768 192.093C243.646 192.098 243.522 192.098 243.398 192.093H243.406V192.095Z" fill="#233C7E"/>
<path fill-rule="evenodd" clip-rule="evenodd" d="M254 180.874V180.905C254 182.294 252.883 183.417 251.504 183.42C250.122 183.42 249.005 182.296 249.002 180.911C249.002 179.522 250.12 178.399 251.499 178.396H253.998V180.874H254Z" fill="#233C7E"/>
</g>
<defs>
<clipPath id="clip0_467_1455">
<rect width="109" height="156" fill="white" transform="translate(145 42)"/>
</clipPath>
</defs>
</svg>
