<svg width="400" height="240" viewBox="0 0 400 240" fill="none" xmlns="http://www.w3.org/2000/svg">
<path d="M400 224C400 232.8 392.8 240 384 240H16C7.2 240 0 232.8 0 224V16C0 7.2 7.2 0 16 0H384C392.8 0 400 7.2 400 16V224Z" fill="white"/>
<path d="M166.033 153.556L178.782 81.8418H198.703L186.352 153.556H166.033Z" fill="#3C58BF"/>
<path d="M166.033 153.556L182.368 81.8418H198.703L186.352 153.556H166.033Z" fill="#293688"/>
<path d="M258.465 82.6385C254.481 81.0448 248.106 79.4512 240.138 79.4512C220.217 79.4512 205.874 89.4115 205.874 103.754C205.874 114.511 215.835 120.089 223.803 123.675C231.771 127.261 234.162 129.651 234.162 132.838C234.162 137.619 227.787 140.01 222.209 140.01C214.241 140.01 209.859 138.815 203.086 136.026L200.297 134.831L197.508 151.165C202.289 153.158 211.054 155.15 220.217 155.15C241.333 155.15 255.278 145.189 255.278 130.05C255.278 121.683 250.098 115.308 238.146 110.129C230.974 106.543 226.592 104.551 226.592 100.965C226.592 97.7782 230.178 94.5909 238.146 94.5909C244.919 94.5909 249.7 95.7861 253.286 97.3797L255.278 98.1766L258.465 82.6385Z" fill="#3C58BF"/>
<path d="M258.465 82.6385C254.481 81.0448 248.106 79.4512 240.138 79.4512C220.217 79.4512 209.46 89.4115 209.46 103.754C209.46 114.511 215.835 120.089 223.803 123.675C231.771 127.261 234.162 129.651 234.162 132.838C234.162 137.619 227.787 140.01 222.209 140.01C214.241 140.01 209.859 138.815 203.086 136.026L200.297 134.831L197.508 151.165C202.289 153.158 211.054 155.15 220.217 155.15C241.333 155.15 255.278 145.189 255.278 130.05C255.278 121.683 250.098 115.308 238.146 110.129C230.974 106.543 226.592 104.551 226.592 100.965C226.592 97.7782 230.178 94.5909 238.146 94.5909C244.919 94.5909 249.7 95.7861 253.286 97.3797L255.278 98.1766L258.465 82.6385Z" fill="#293688"/>
<path d="M292.728 81.8418C287.947 81.8418 284.361 82.2402 282.369 87.0212L252.488 153.556H274.003L277.987 141.604H303.485L305.876 153.556H324.999L308.266 81.8418H292.728ZM283.564 129.651C284.76 126.066 291.533 108.535 291.533 108.535C291.533 108.535 293.126 104.153 294.322 101.364L295.517 108.137C295.517 108.137 299.501 126.066 300.298 130.05H283.564V129.651Z" fill="#3C58BF"/>
<path d="M297.509 81.8418C292.728 81.8418 289.142 82.2402 287.15 87.0212L252.488 153.556H274.003L277.987 141.604H303.485L305.876 153.556H324.999L308.266 81.8418H297.509ZM283.564 129.651C285.158 125.667 291.533 108.535 291.533 108.535C291.533 108.535 293.126 104.153 294.322 101.364L295.517 108.137C295.517 108.137 299.501 126.066 300.298 130.05H283.564V129.651Z" fill="#293688"/>
<path d="M129.379 132.042L127.387 121.683C123.801 109.731 112.247 96.5831 99.498 90.2085L117.427 153.955H138.941L171.212 82.2402H149.698L129.379 132.042Z" fill="#3C58BF"/>
<path d="M129.379 132.042L127.387 121.683C123.801 109.731 112.247 96.5831 99.498 90.2085L117.427 153.955H138.941L171.212 82.2402H153.682L129.379 132.042Z" fill="#293688"/>
<path d="M74 81.8418L77.5857 82.6386C103.084 88.6148 120.614 103.754 127.387 121.683L120.216 87.818C119.021 83.037 115.435 81.8418 111.052 81.8418H74Z" fill="#FFBC00"/>
<path d="M74 81.8418C99.4984 87.818 120.614 103.356 127.387 121.285L120.614 92.9974C119.419 88.2164 115.435 85.4275 111.052 85.4275L74 81.8418Z" fill="#F7981D"/>
<path d="M74 81.8418C99.4984 87.818 120.614 103.356 127.387 121.285L122.606 105.747C121.411 100.966 119.817 96.1847 114.24 94.1926L74 81.8418Z" fill="#ED7C00"/>
</svg>
