<svg width="289" height="290" viewBox="0 0 289 290" fill="none" xmlns="http://www.w3.org/2000/svg">
<rect x="0.000732422" y="0.636719" width="288.727" height="288.727" rx="57.7453" fill="#FEC39A"/>
<path d="M78.0449 188.057C76.3828 188.057 75.1362 187.226 73.8377 185.979L44.5428 142.505C43.2963 140.843 43.2963 138.349 44.5428 137.103C45.7894 135.856 47.8672 134.61 49.9968 135.441L86.8229 147.855L223.739 126.351C225.402 125.936 226.7 125.936 228.362 125.936C240.516 125.936 249.71 135.025 250.126 148.27C250.541 161.515 242.179 176.007 224.986 177.669L166.76 182.24C164.682 182.24 162.553 180.993 161.722 178.915C160.891 176.838 161.722 174.76 163.384 173.514L177.616 164.008H161.722L143.283 181.824C142.867 182.655 141.621 183.071 140.79 183.071L77.9929 188.057H78.0449ZM60.4368 149.153L80.1225 178.136L137.933 173.565L156.788 155.334C157.619 154.503 158.865 154.088 160.112 154.088H194.029C196.107 154.088 198.236 155.334 198.652 157.412C199.068 159.489 198.652 161.567 196.574 162.814L184.42 171.072L224.207 167.748C235.53 166.917 240.932 157.412 240.516 148.27C240.101 142.037 236.725 135.025 228.362 135.025C227.531 135.025 226.285 135.025 225.454 135.441L87.7058 156.944H85.6282L60.4888 149.101L60.4368 149.153Z" fill="#094C48"/>
<path d="M131.229 212.107H111.959C109.882 212.107 108.168 210.861 107.337 209.199C106.506 207.537 106.921 205.459 108.167 203.797L136.631 175.229L156.732 155.803C157.563 154.972 158.81 154.557 160.057 154.557H193.974C196.052 154.557 198.181 155.803 198.597 157.881C199.012 159.959 198.597 162.036 196.519 163.283L169.302 181.514L134.138 210.913C133.307 211.744 132.476 212.159 131.229 212.159V212.107ZM123.282 202.602H129.152L163.069 174.035L163.485 173.619L177.717 164.114H161.823L143.384 181.93L123.282 202.602Z" fill="#094C48"/>
<path d="M111.545 159.068H101.936V168.574H111.545V159.068Z" fill="#094C48"/>
<path d="M131.222 154.557H121.613V164.062H131.222V154.557Z" fill="#094C48"/>
<path d="M213.723 144.995H204.114V154.5H213.723V144.995Z" fill="#094C48"/>
<path d="M227.935 140.062H218.326V149.567H227.935V140.062Z" fill="#094C48"/>
<path d="M78.0448 116.069H48.7499C46.2568 116.069 43.7118 113.992 43.7118 111.083C43.7118 108.174 45.7893 106.097 48.7499 106.097H78.0448C80.5379 106.097 83.083 108.174 83.083 111.083C82.6675 113.992 80.5899 116.069 78.0448 116.069Z" fill="#094C48"/>
<path d="M111.96 130.559H67.9655C65.4724 130.559 62.9272 128.481 62.9272 125.572C62.9272 123.079 65.0049 120.586 67.9655 120.586H111.492C113.985 120.586 116.53 122.664 116.53 125.572C116.53 128.481 114.453 130.559 111.908 130.559H111.96Z" fill="#094C48"/>
<path d="M78.0448 207.119H48.7499C46.2568 207.119 43.7118 205.042 43.7118 202.133C43.7118 199.64 45.7893 197.146 48.7499 197.146H78.0448C80.5379 197.146 83.083 199.224 83.083 202.133C82.6675 205.042 80.5899 207.119 78.0448 207.119Z" fill="#094C48"/>
<path d="M189.459 111.494C186.966 111.494 184.42 109.417 184.42 106.508C184.42 104.015 186.498 101.522 189.459 101.522C194.913 101.522 199.068 97.3663 199.068 92.0163C199.068 86.6664 194.861 82.5111 189.459 82.5111C188.212 82.5111 187.381 82.5111 186.134 82.9267C184.472 83.3422 182.758 83.3422 181.512 82.0956C180.265 81.2645 179.434 79.6024 179.434 77.9403V77.1093C179.434 69.2662 172.734 62.6177 164.787 62.6177C158.917 62.6177 153.879 65.9419 151.386 70.8763C150.139 73.3695 147.179 74.2006 145.101 73.3695C142.608 72.1229 141.777 69.2142 142.608 67.1366C146.399 58.8779 155.178 53.0605 164.787 53.0605C176.525 53.0605 186.134 61.3192 188.679 72.1229H189.095C200.003 72.1229 208.365 80.7971 208.365 91.1853C208.781 102.768 200.003 111.494 189.511 111.494H189.459Z" fill="#094C48"/>
<path d="M150.498 105.676C148.005 105.676 145.46 103.599 145.46 100.69C145.46 98.1967 147.537 95.7035 150.498 95.7035C155.952 95.7035 160.107 91.5482 160.107 86.1983C160.107 80.8484 155.9 76.6931 150.498 76.6931C149.252 76.6931 148.42 76.6931 147.122 77.1086C145.46 77.5241 143.798 77.5241 142.499 76.2775C141.253 75.4465 140.422 73.7844 140.422 72.1223V71.2912C140.422 63.4481 133.721 56.7996 125.774 56.7996C119.905 56.7996 114.866 60.1239 112.373 65.0583C111.958 66.3049 110.711 67.1359 109.465 67.5514C108.218 67.967 106.971 67.967 105.673 67.1359C104.426 66.3049 102.764 65.8893 101.05 65.8893C96.8429 65.8893 93.1032 68.3825 91.8566 72.1223C91.0256 74.1999 89.3634 75.4465 86.8183 75.4465H86.4027C80.9489 75.4465 76.7937 79.6018 76.7937 84.9517C76.7937 87.4449 74.7161 89.938 71.7555 89.938C68.7948 89.938 66.7172 87.8604 66.7172 84.9517C66.7172 75.031 74.2486 67.1359 83.9096 65.8893C87.2339 60.0719 93.5187 56.3841 100.635 56.3841C102.297 56.3841 103.543 56.3841 105.257 56.7996C109.88 50.5667 116.996 46.8789 124.943 46.8789C136.682 46.8789 146.291 55.1375 148.836 65.9413H149.251C160.159 65.9413 168.522 74.6154 168.522 85.0036C170.184 97.002 161.406 105.676 150.498 105.676Z" fill="#094C48"/>
<path d="M238.017 231.117C235.524 231.117 232.979 229.039 232.979 226.131C232.979 220.729 228.771 216.625 223.37 216.625C222.123 216.625 221.292 216.625 219.993 217.041C218.331 217.456 216.617 217.456 215.371 216.21C214.124 215.379 213.293 213.717 213.293 212.055V211.224C213.293 203.38 206.593 196.732 198.646 196.732C192.776 196.732 187.738 200.056 185.245 204.991C184.829 206.237 183.583 207.068 182.336 207.484C181.089 207.899 179.843 207.899 178.544 207.068C177.246 206.237 175.636 205.822 173.922 205.822C171.428 205.822 168.883 203.744 168.883 200.835C168.883 198.342 170.961 195.849 173.922 195.849C175.584 195.849 176.83 195.849 178.544 196.264C183.167 190.032 190.283 186.344 198.23 186.344C209.969 186.344 219.578 194.602 222.071 205.406H222.487C233.394 205.406 241.757 214.08 241.757 224.468C242.588 229.039 240.51 231.065 237.965 231.065L238.017 231.117Z" fill="#094C48"/>
</svg>
