<svg width="122" height="122" viewBox="0 0 122 122" fill="none" xmlns="http://www.w3.org/2000/svg">
<rect width="121.18" height="121.18" rx="24.2359" fill="#03524D"/>
<path d="M32.7541 78.661C32.0565 78.661 31.5333 78.3122 30.9883 77.789L18.6932 59.5425C18.17 58.8449 18.17 57.7985 18.6932 57.2754C19.2164 56.7522 20.0884 56.229 20.9822 56.5778L36.4383 61.7879L93.9027 52.7628C94.6003 52.5884 95.1454 52.5884 95.843 52.5884C100.944 52.5884 104.803 56.4034 104.977 61.9623C105.152 67.5213 101.642 73.6035 94.426 74.3011L69.9883 76.2194C69.1163 76.2194 68.2225 75.6962 67.8737 74.8242C67.5249 73.9523 67.8737 73.0803 68.5713 72.5571L74.5445 68.5677H67.8737L60.1348 76.045C59.9604 76.3938 59.4371 76.5682 59.0883 76.5682L32.7323 78.661H32.7541ZM25.3639 62.3329L33.6261 74.4973L57.8894 72.5789L65.8027 64.9271C66.1515 64.5783 66.6747 64.4039 67.1979 64.4039H81.4332C82.3052 64.4039 83.199 64.9271 83.3734 65.7991C83.5478 66.6711 83.3734 67.5431 82.5014 68.0663L77.4003 71.5325L94.099 70.1373C98.8514 69.7885 101.119 65.7991 100.944 61.9623C100.77 59.3463 99.3527 56.4034 95.843 56.4034C95.4942 56.4034 94.971 56.4034 94.6222 56.5778L36.8089 65.6029H35.9369L25.3858 62.3111L25.3639 62.3329Z" fill="white"/>
<path d="M55.0766 88.7553H46.9888C46.1168 88.7553 45.3975 88.2321 45.0487 87.5345C44.6999 86.8369 44.8742 85.965 45.3974 85.2674L57.3438 73.2774L65.7803 65.1243C66.1291 64.7755 66.6523 64.6011 67.1755 64.6011H81.4108C82.2828 64.6011 83.1766 65.1243 83.351 65.9963C83.5254 66.8683 83.351 67.7403 82.479 68.2634L71.0559 75.9152L56.2973 88.2539C55.9485 88.6027 55.5998 88.7771 55.0766 88.7771V88.7553ZM51.7412 84.766H54.2046L68.4399 72.776L68.6143 72.6016L74.5875 68.6122H67.9167L60.1777 76.0896L51.7412 84.766Z" fill="white"/>
<path d="M46.8142 66.4961H42.7812V70.4855H46.8142V66.4961Z" fill="white"/>
<path d="M55.072 64.6011H51.0391V68.5905H55.072V64.6011Z" fill="white"/>
<path d="M89.699 60.5894H85.666V64.5787H89.699V60.5894Z" fill="white"/>
<path d="M95.6638 58.5186H91.6309V62.5079H95.6638V58.5186Z" fill="white"/>
<path d="M32.7534 48.4473H20.4583C19.4119 48.4473 18.3438 47.5753 18.3438 46.3545C18.3438 45.1337 19.2157 44.2617 20.4583 44.2617H32.7534C33.7998 44.2617 34.868 45.1337 34.868 46.3545C34.6936 47.5753 33.8216 48.4473 32.7534 48.4473Z" fill="white"/>
<path d="M46.9892 54.5288H28.5247C27.4784 54.5288 26.4102 53.6568 26.4102 52.436C26.4102 51.3897 27.2822 50.3433 28.5247 50.3433H46.793C47.8394 50.3433 48.9076 51.2153 48.9076 52.436C48.9076 53.6568 48.0356 54.5288 46.9674 54.5288H46.9892Z" fill="white"/>
<path d="M32.7534 86.6631H20.4583C19.4119 86.6631 18.3438 85.7911 18.3438 84.5703C18.3438 83.5239 19.2157 82.4775 20.4583 82.4775H32.7534C33.7998 82.4775 34.868 83.3495 34.868 84.5703C34.6936 85.7911 33.8216 86.6631 32.7534 86.6631Z" fill="white"/>
<path d="M79.515 46.5283C78.4686 46.5283 77.4004 45.6563 77.4004 44.4355C77.4004 43.3891 78.2724 42.3427 79.515 42.3427C81.804 42.3427 83.5479 40.5987 83.5479 38.3533C83.5479 36.1079 81.7822 34.3639 79.515 34.3639C78.9918 34.3639 78.643 34.3639 78.1198 34.5383C77.4222 34.7127 76.7028 34.7127 76.1796 34.1895C75.6564 33.8407 75.3076 33.1432 75.3076 32.4456V32.0968C75.3076 28.805 72.4955 26.0146 69.1601 26.0146C66.6967 26.0146 64.5821 27.4098 63.5357 29.4808C63.0125 30.5272 61.7699 30.876 60.8979 30.5272C59.8515 30.004 59.5027 28.7832 59.8515 27.9112C61.4429 24.445 65.1271 22.0034 69.1601 22.0034C74.0869 22.0034 78.1198 25.4696 79.188 30.004H79.3624C83.9404 30.004 87.4501 33.6446 87.4501 38.0045C87.6245 42.8659 83.9404 46.5283 79.5368 46.5283H79.515Z" fill="white"/>
<path d="M63.1632 44.0861C62.1168 44.0861 61.0486 43.2142 61.0486 41.9934C61.0486 40.947 61.9206 39.9006 63.1632 39.9006C65.4522 39.9006 67.1961 38.1566 67.1961 35.9112C67.1961 33.6658 65.4304 31.9218 63.1632 31.9218C62.64 31.9218 62.2912 31.9218 61.7462 32.0962C61.0486 32.2706 60.351 32.2706 59.806 31.7474C59.2828 31.3986 58.934 30.701 58.934 30.0034V29.6546C58.934 26.3629 56.1218 23.5725 52.7864 23.5725C50.3231 23.5725 48.2084 24.9677 47.162 27.0386C46.9876 27.5618 46.4644 27.9106 45.9413 28.085C45.4181 28.2594 44.8949 28.2594 44.3499 27.9106C43.8267 27.5618 43.1291 27.3874 42.4097 27.3874C40.6439 27.3874 39.0743 28.4338 38.5511 30.0034C38.2023 30.8754 37.5047 31.3986 36.4365 31.3986H36.2621C33.9731 31.3986 32.2292 33.1426 32.2292 35.388C32.2292 36.4344 31.3572 37.4808 30.1146 37.4808C28.872 37.4808 28 36.6088 28 35.388C28 31.2242 31.161 27.9106 35.2158 27.3874C36.6109 24.9459 39.2487 23.3981 42.2353 23.3981C42.9329 23.3981 43.4561 23.3981 44.1755 23.5725C46.1157 20.9565 49.1023 19.4087 52.4376 19.4087C57.3644 19.4087 61.3974 22.8749 62.4656 27.4092H62.64C67.2179 27.4092 70.7278 31.0498 70.7278 35.4098C71.4254 40.4456 67.7412 44.0861 63.1632 44.0861Z" fill="white"/>
<path d="M99.8945 96.7334C98.8481 96.7334 97.7799 95.8614 97.7799 94.6406C97.7799 92.3734 96.0142 90.6512 93.747 90.6512C93.2238 90.6512 92.875 90.6512 92.33 90.8256C91.6324 91 90.913 91 90.3898 90.4768C89.8666 90.128 89.5178 89.4304 89.5178 88.7328V88.384C89.5178 85.0923 86.7056 82.3019 83.3703 82.3019C80.9069 82.3019 78.7923 83.6971 77.7459 85.768C77.5715 86.2912 77.0483 86.64 76.5251 86.8144C76.0019 86.9888 75.4787 86.9888 74.9337 86.64C74.3887 86.2912 73.7129 86.1168 72.9935 86.1168C71.9471 86.1168 70.8789 85.2449 70.8789 84.0241C70.8789 82.9777 71.7509 81.9313 72.9935 81.9313C73.6911 81.9313 74.2143 81.9313 74.9337 82.1057C76.8739 79.4897 79.8605 77.9419 83.1959 77.9419C88.1227 77.9419 92.1556 81.4081 93.202 85.9425H93.3764C97.9544 85.9425 101.464 89.583 101.464 93.943C101.813 95.8614 100.941 96.7116 99.8728 96.7116L99.8945 96.7334Z" fill="white"/>
</svg>
