<svg width="112" height="111" viewBox="0 0 112 111" fill="none" xmlns="http://www.w3.org/2000/svg">
<rect x="0.844727" width="110.651" height="110.651" rx="22.1303" fill="#06635D"/>
<g clip-path="url(#clip0_203_16259)">
<path d="M89.6503 72.8605C85.3351 70.5883 79.2699 67.8363 73.3435 66.5599C75.6309 63.651 77.3568 60.1988 78.2561 56.5144C80.4378 55.6302 81.9828 53.4969 81.9828 51.0014V41.7828C81.9828 39.5136 80.6913 37.5613 78.8205 36.5565C77.5951 26.2908 68.3223 17.7271 57.8423 17.7271C54.7131 17.7271 51.5749 18.5629 48.6358 20.0807C46.0046 18.59 42.972 17.7271 39.7371 17.7271C29.7551 17.7271 21.6318 25.8472 21.6318 35.8323C21.6318 44.8487 28.2674 52.3262 36.9066 53.6931C37.4799 58.4247 39.4775 62.9177 42.3411 66.5599C36.4146 67.8363 30.3525 70.5883 26.0344 72.8605C23.3186 74.2908 21.6318 77.0851 21.6318 80.1539V87.1305C21.6318 88.7962 22.9807 90.148 24.6493 90.148H91.0352C92.7038 90.148 94.0527 88.7962 94.0527 87.1305V80.1539C94.0528 77.0851 92.369 74.2908 89.6503 72.8605ZM38.5935 41.5535H32.2415C31.5445 41.5535 30.935 41.131 30.6905 40.4763C30.4461 39.8215 30.6301 39.1033 31.1613 38.6447L36.3455 34.1757C36.8977 33.6205 36.8825 32.8239 36.6623 32.2866C36.5657 32.0483 36.1764 31.2698 35.1987 31.2546C33.8952 31.2546 32.8692 32.2806 32.8692 33.542C32.8692 34.1757 32.3593 34.6856 31.7256 34.6856C31.092 34.6856 30.582 34.1757 30.582 33.542C30.582 31.0193 32.634 28.9643 35.1597 28.9643C36.8193 28.9915 38.1803 29.933 38.7868 31.4266C39.4054 32.9595 39.0584 34.6946 37.9026 35.8504L33.9467 39.2662H38.5936C39.2243 39.2662 39.7372 39.7761 39.7372 40.4098C39.7371 41.0405 39.224 41.5535 38.5935 41.5535ZM40.8838 38.1195V38.1196C40.4372 38.1196 40.0328 37.8632 39.8457 37.4618C39.6556 37.0605 39.719 36.5837 40.0026 36.2426L45.7238 29.3747C46.0346 29.0035 46.5415 28.8707 46.9942 29.0307C47.4468 29.1966 47.7485 29.6281 47.7485 30.1079V35.8323H48.8952C49.5259 35.8323 50.0388 36.3453 50.0388 36.9759C50.0388 37.6065 49.5258 38.1195 48.8952 38.1195H47.7485V40.4098C47.7485 41.0405 47.2386 41.5534 46.6049 41.5534C45.9712 41.5534 45.4613 41.0404 45.4613 40.4098V38.1195H40.8838ZM72.9302 50.92C72.9302 52.1573 72.7733 53.3975 72.5047 54.6165C69.2005 55.6514 63.5547 56.955 57.8425 56.955C56.1738 56.955 54.825 58.3068 54.825 59.9725C54.825 61.6382 56.1737 62.9902 57.8423 62.9902C61.8737 62.9902 65.9354 62.4169 69.4387 61.6533C68.1322 63.5845 66.5419 65.2624 64.7886 66.5266C64.7615 66.5447 64.7343 66.5508 64.7101 66.5658C63.0234 67.7668 61.2822 68.5332 59.4415 68.8652C58.3824 69.0492 57.3895 69.0643 56.1584 68.8471C54.4051 68.5332 52.6611 67.7668 50.9773 66.5658C50.9622 66.5567 50.9472 66.5538 50.9321 66.5447C46.9942 63.7203 43.8348 58.8199 42.9809 53.6447C43.0261 53.6357 43.0653 53.6176 43.1106 53.6085C44.034 53.4336 44.9302 53.1801 45.7992 52.8723C45.9501 52.818 46.1009 52.7637 46.2519 52.7064C47.1028 52.3744 47.9205 51.9882 48.7051 51.5386C48.8318 51.4662 48.9525 51.3877 49.0792 51.3123C49.8729 50.8295 50.6333 50.3045 51.3424 49.71C51.3997 49.6647 51.451 49.6104 51.5053 49.5621C52.2054 48.9617 52.8603 48.3068 53.4637 47.6068C53.5119 47.5495 53.5662 47.4981 53.6146 47.4409C54.206 46.7318 54.7342 45.9714 55.2139 45.1807C55.2893 45.0539 55.3708 44.9302 55.4432 44.8034C55.8929 44.0188 56.279 43.2011 56.608 42.3531C56.6684 42.1993 56.7228 42.0483 56.7771 41.8944C57.0849 41.0254 57.3383 40.1353 57.5133 39.2119C57.5375 39.0852 57.5525 38.9584 57.5737 38.8317C57.7367 37.854 57.8423 36.8552 57.8423 35.8323C57.8423 34.8426 57.7427 33.8799 57.5888 32.9325C57.5707 32.8268 57.5587 32.7213 57.5406 32.6186C57.3656 31.65 57.1122 30.7146 56.7892 29.8062C56.7772 29.77 56.7651 29.7368 56.7501 29.7006C56.053 27.7663 55.0482 25.977 53.7717 24.4138C55.1206 23.9823 56.4875 23.762 57.8425 23.762C64.9669 23.762 72.9302 30.2136 72.9302 38.8498V50.92Z" fill="white"/>
<path d="M43.3237 35.8314H45.4603V33.2695L43.3237 35.8314Z" fill="white"/>
</g>
<defs>
<clipPath id="clip0_203_16259">
<rect width="72.421" height="72.421" fill="white" transform="translate(21.6318 17.7271)"/>
</clipPath>
</defs>
</svg>
