<svg width="122" height="122" viewBox="0 0 122 122" fill="none" xmlns="http://www.w3.org/2000/svg">
<rect width="121.18" height="121.18" rx="24.2359" fill="#03524D"/>
<path d="M59.67 84.6544C59.5471 84.6544 59.319 84.6544 59.1961 84.5451L28.3654 75.3656C27.7863 75.1626 27.3125 74.7411 27.3125 74.1166V35.1192C27.3125 34.6976 27.5406 34.2917 28.0144 33.9795C28.4882 33.7766 28.9444 33.7766 29.4182 33.8702L35.279 36.4774C35.9809 36.7896 36.3319 37.617 35.9809 38.2571C35.63 38.8815 34.6999 39.1937 33.9805 38.8815L30.3482 37.2111V73.2892L59.6524 81.938L88.9566 73.2892V37.2111L85.2014 38.8815C84.4995 39.1937 83.552 38.9908 83.2011 38.2571C82.8501 37.6326 83.0782 36.8052 83.903 36.4774L89.7638 33.8702C90.2376 33.6673 90.6938 33.6673 91.1676 33.9795C91.6413 34.1825 91.8695 34.604 91.8695 35.1192V74.2259C91.8695 74.7411 91.5185 75.2719 90.8166 75.4748L59.9858 84.6544C59.9858 84.5451 59.7577 84.6544 59.6348 84.6544H59.67Z" fill="white"/>
<path d="M36.2241 91.1183C35.8731 91.1183 35.645 91.009 35.3994 90.9153C35.0484 90.7124 34.8203 90.2909 34.8203 89.8694V76.8338C34.8203 76.1 35.5222 75.4756 36.3469 75.4756C37.1717 75.4756 37.8735 76.1 37.8735 76.8338V87.996L59.4393 82.048C60.2641 81.8451 61.0888 82.251 61.3169 82.8754C61.5451 83.6092 61.0888 84.3273 60.3869 84.5459L36.9435 91.1183H36.2416H36.2241Z" fill="white"/>
<path d="M83.1106 91.117C82.9877 91.117 82.7596 91.117 82.6368 91.0077L59.1934 84.4353C58.6144 84.2323 58.1406 83.8108 58.1406 83.1864V70.2601C58.1406 69.5263 58.8425 68.9019 59.6672 68.9019C60.492 68.9019 61.1939 69.5263 61.1939 70.2601V82.359L81.7068 87.9947V76.8325C81.7068 76.0988 82.4087 75.4743 83.2334 75.4743C84.0582 75.4743 84.76 76.0988 84.76 76.8325V89.8681C84.76 90.2896 84.5319 90.6955 84.181 90.914C83.7072 91.0233 83.4791 91.117 83.1281 91.117H83.1106Z" fill="white"/>
<path d="M59.6707 71.6186H34.8235C33.9988 71.6186 33.2969 70.9941 33.2969 70.2604V31.1536C33.2969 30.4199 33.9988 29.7954 34.8235 29.7954H54.9855C58.3897 29.7954 61.1973 32.2932 61.1973 35.3219C61.1973 36.0556 60.4954 36.6801 59.6707 36.6801C58.8459 36.6801 58.144 36.0556 58.144 35.3219C58.144 33.7607 56.7402 32.4025 54.8626 32.4025H36.2273V68.9022H59.6707C60.4954 68.9022 61.1973 69.5266 61.1973 70.2604C61.1973 70.9941 60.4954 71.6186 59.6707 71.6186Z" fill="white"/>
<path d="M53.8064 37.7262H40.6809C39.8562 37.7262 39.1543 37.1017 39.1543 36.368C39.1543 35.6342 39.8562 35.0098 40.6809 35.0098H53.8064C54.6311 35.0098 55.333 35.6342 55.333 36.368C55.333 37.1017 54.6311 37.7262 53.8064 37.7262Z" fill="white"/>
<path d="M53.8064 41.5831H40.6809C39.8562 41.5831 39.1543 40.9586 39.1543 40.2249C39.1543 39.4912 39.8562 38.8667 40.6809 38.8667H53.8064C54.6311 38.8667 55.333 39.4912 55.333 40.2249C55.333 40.9586 54.6311 41.5831 53.8064 41.5831Z" fill="white"/>
<path d="M53.8064 45.5474H40.6809C39.8562 45.5474 39.1543 44.923 39.1543 44.1893C39.1543 43.4555 39.8562 42.8311 40.6809 42.8311H53.8064C54.6311 42.8311 55.333 43.4555 55.333 44.1893C55.333 44.923 54.6311 45.5474 53.8064 45.5474Z" fill="white"/>
<path d="M53.8064 49.4029H40.6809C39.8562 49.4029 39.1543 48.7785 39.1543 48.0447C39.1543 47.311 39.8562 46.6865 40.6809 46.6865H53.8064C54.6311 46.6865 55.333 47.311 55.333 48.0447C55.333 48.7785 54.6311 49.4029 53.8064 49.4029Z" fill="white"/>
<path d="M53.8064 53.3697H40.6809C39.8562 53.3697 39.1543 52.7453 39.1543 52.0115C39.1543 51.2778 39.8562 50.6533 40.6809 50.6533H53.8064C54.6311 50.6533 55.333 51.2778 55.333 52.0115C55.333 52.7453 54.6311 53.3697 53.8064 53.3697Z" fill="white"/>
<path d="M53.8064 57.2252H40.6809C39.8562 57.2252 39.1543 56.6007 39.1543 55.867C39.1543 55.1333 39.8562 54.5088 40.6809 54.5088H53.8064C54.6311 54.5088 55.333 55.1333 55.333 55.867C55.333 56.6007 54.6311 57.2252 53.8064 57.2252Z" fill="white"/>
<path d="M53.8064 61.1896H40.6809C39.8562 61.1896 39.1543 60.5651 39.1543 59.8313C39.1543 59.0976 39.8562 58.4731 40.6809 58.4731H53.8064C54.6311 58.4731 55.333 59.0976 55.333 59.8313C55.333 60.5651 54.6311 61.1896 53.8064 61.1896Z" fill="white"/>
<path d="M53.8064 65.046H40.6809C39.8562 65.046 39.1543 64.4215 39.1543 63.6878C39.1543 62.9541 39.8562 62.3296 40.6809 62.3296H53.8064C54.6311 62.3296 55.333 62.9541 55.333 63.6878C55.333 64.4215 54.6311 65.046 53.8064 65.046Z" fill="white"/>
<path d="M78.7788 37.7262H65.5305C64.7058 37.7262 64.0039 37.1017 64.0039 36.368C64.0039 35.6342 64.7058 35.0098 65.5305 35.0098H78.7788C79.6035 35.0098 80.3054 35.6342 80.3054 36.368C80.1826 37.1017 79.4807 37.7262 78.7788 37.7262Z" fill="white"/>
<path d="M78.7788 41.5827H65.5305C64.7058 41.5827 64.0039 40.9582 64.0039 40.2245C64.0039 39.4908 64.7058 38.9756 65.5305 38.9756H78.7788C79.6035 38.9756 80.3054 39.6 80.3054 40.3338C80.1826 40.9582 79.4807 41.5827 78.7788 41.5827Z" fill="white"/>
<path d="M78.7788 45.5474H65.5305C64.7058 45.5474 64.0039 44.923 64.0039 44.1893C64.0039 43.4555 64.7058 42.8311 65.5305 42.8311H78.7788C79.6035 42.8311 80.3054 43.4555 80.3054 44.1893C80.3054 44.923 79.4807 45.5474 78.7788 45.5474Z" fill="white"/>
<path d="M78.7788 49.4029H65.5305C64.7058 49.4029 64.0039 48.7785 64.0039 48.0447C64.0039 47.311 64.7058 46.6865 65.5305 46.6865H78.7788C79.6035 46.6865 80.3054 47.311 80.3054 48.0447C80.3054 48.7785 79.4807 49.4029 78.7788 49.4029Z" fill="white"/>
<path d="M78.7788 53.3697H65.5305C64.7058 53.3697 64.0039 52.7453 64.0039 52.0115C64.0039 51.2778 64.7058 50.6533 65.5305 50.6533H78.7788C79.6035 50.6533 80.3054 51.2778 80.3054 52.0115C80.3054 52.7453 79.4807 53.3697 78.7788 53.3697Z" fill="white"/>
<path d="M78.7788 57.2252H65.5305C64.7058 57.2252 64.0039 56.6007 64.0039 55.867C64.0039 55.1333 64.7058 54.5088 65.5305 54.5088H78.7788C79.6035 54.5088 80.3054 55.1333 80.3054 55.867C80.3054 56.6007 79.4807 57.2252 78.7788 57.2252Z" fill="white"/>
<path d="M78.7788 61.1896H65.5305C64.7058 61.1896 64.0039 60.5651 64.0039 59.8313C64.0039 59.0976 64.7058 58.4731 65.5305 58.4731H78.7788C79.6035 58.4731 80.3054 59.0976 80.3054 59.8313C80.1826 60.5651 79.4807 61.1896 78.7788 61.1896Z" fill="white"/>
<path d="M78.7788 65.046H65.5305C64.7058 65.046 64.0039 64.4215 64.0039 63.6878C64.0039 62.9541 64.7058 62.3296 65.5305 62.3296H78.7788C79.6035 62.3296 80.3054 62.9541 80.3054 63.6878C80.3054 64.4215 79.4807 65.046 78.7788 65.046Z" fill="white"/>
<path d="M84.6372 71.6186H69.9851C69.1604 71.6186 68.4585 70.9941 68.4585 70.2604C68.4585 69.5266 69.1604 68.9022 69.9851 68.9022H83.1106V32.4025H64.3524C62.5976 32.4025 61.071 33.6515 61.071 35.3219V69.0115H64.0015C64.8262 69.0115 65.5281 69.6359 65.5281 70.3697C65.5281 71.1034 64.8262 71.7279 64.0015 71.7279H59.6672C58.8425 71.7279 58.1406 71.1034 58.1406 70.3697V35.3375C58.1406 32.3089 60.9482 29.811 64.3524 29.811H84.6372C85.4619 29.811 86.1639 30.4355 86.1639 31.1692V70.276C86.041 71.0097 85.3391 71.6342 84.6372 71.6342V71.6186Z" fill="white"/>
<path d="M69.9871 76.8328C69.6362 76.8328 69.2852 76.7235 68.9343 76.4113L67.0567 74.7408L65.1791 76.4113C64.7053 76.8328 64.1263 76.9264 63.5472 76.7235C62.9681 76.5205 62.6172 76.099 62.6172 75.4746V68.9021C62.6172 68.1684 63.3191 67.5439 64.1438 67.5439H70.0046C70.8294 67.5439 71.5313 68.1684 71.5313 68.9021V75.4746C71.5313 75.9897 71.1803 76.5205 70.6012 76.7235C70.3731 76.7235 70.1275 76.8328 70.0222 76.8328H69.9871ZM67.0567 71.6185C67.4076 71.6185 67.7586 71.7278 68.1095 72.04L68.5833 72.4616V70.3696H65.5301V72.4616L66.0038 72.04C66.2319 71.7278 66.5829 71.6185 67.0567 71.6185Z" fill="white"/>
</svg>
