<svg width="122" height="122" viewBox="0 0 122 122" fill="none" xmlns="http://www.w3.org/2000/svg">
<rect width="121.18" height="121.18" rx="24.2359" fill="#03524D"/>
<path d="M89.5186 66.2769C88.5769 66.2769 87.7754 65.4754 87.7754 64.5337V64.3935C87.7754 63.4517 88.5769 62.7905 89.3783 62.7905C90.32 62.7905 90.9812 63.592 90.9812 64.5337V64.674C91.2417 65.6157 90.4403 66.2769 89.5186 66.2769Z" fill="white"/>
<path d="M79.0759 99.719L64.349 99.5787C63.4073 99.5787 62.7461 98.7773 62.7461 97.8356L62.8864 82.8482C62.8864 80.0431 64.2288 77.2379 66.3727 75.4948L82.8428 61.8498C83.7845 61.0484 84.9867 60.6476 86.1889 60.6476C86.7299 60.6476 87.3911 60.7879 87.9321 60.9081L88.0724 46.5819C88.0724 43.4963 90.617 40.9517 93.7026 40.9517C95.1653 40.9517 96.648 41.6129 97.71 42.6948C98.7719 43.7768 99.3129 45.2395 99.3129 46.7022L99.0524 66.9191C99.0524 71.0667 97.189 74.8135 94.1034 77.4984L80.7189 88.8792V97.8556C80.7189 98.2563 80.5787 98.6571 80.1779 99.0578C79.9175 99.4585 79.5167 99.719 79.116 99.719H79.0759ZM66.0922 96.1124L77.473 96.2527V88.218C77.473 87.677 77.7335 87.2763 78.014 87.0158L91.9394 75.094C94.3438 73.0904 95.6863 70.145 95.6863 66.9391L95.9468 46.7222C95.9468 46.061 95.6863 45.52 95.2855 45.1193C94.8848 44.5783 94.3438 44.4581 93.6826 44.4581C92.4804 44.4581 91.3984 45.52 91.3984 46.7422L91.2582 64.5347C91.2582 65.3362 90.7172 65.9974 89.9157 66.1377C89.1143 66.2779 88.3128 65.8772 88.0523 65.1959C87.9121 64.9355 87.7919 64.655 87.5113 64.3945C87.1106 64.134 86.7099 63.9938 86.3091 63.9938C85.9084 63.9938 85.3674 64.134 85.1069 64.3945L68.5166 78.0394C67.054 79.2416 66.2525 80.9848 66.2525 82.8482L66.1122 96.0924L66.0922 96.1124Z" fill="white"/>
<path d="M78.1363 79.7818C77.7356 79.7818 77.1946 79.6415 76.9341 79.2408C76.2729 78.5796 76.3931 77.4976 77.0744 76.8364L87.6537 67.339C88.3149 66.7981 88.4551 65.8764 88.1947 65.0549C87.7939 64.2534 88.1947 63.1915 89.1364 62.911C89.9379 62.5102 91.0198 62.911 91.2803 63.8527C92.222 65.9966 91.681 68.401 89.9379 69.8837L79.3585 79.3811C78.9578 79.6415 78.5571 79.7818 78.1563 79.7818H78.1363Z" fill="white"/>
<path d="M30.9115 66.2769C29.9698 66.2769 29.3086 65.4754 29.3086 64.674V64.5337C29.3086 63.592 29.9698 62.7905 30.9115 62.7905C31.8532 62.7905 32.6547 63.4517 32.6547 64.3935V64.5337C32.5145 65.5957 31.8532 66.2769 30.9115 66.2769Z" fill="white"/>
<path d="M41.3489 99.7174C40.9481 99.7174 40.5474 99.5772 40.1467 99.1765C39.8862 98.916 39.6057 98.375 39.6057 97.9743V88.9979L26.2212 77.6171C23.1356 74.9322 21.2722 71.0651 21.2722 67.0377L21.0117 46.8208C21.0117 45.3582 21.5527 43.8754 22.6146 42.8135C23.6766 41.7516 25.019 41.0703 26.622 41.0703C29.7076 41.0703 32.2523 43.615 32.2523 46.7006L32.3925 61.0268C32.9335 60.8865 33.4544 60.7663 34.1357 60.7663C35.3379 60.7663 36.5401 61.167 37.4818 61.9685L53.9519 75.4932C56.2361 77.3766 57.4383 80.0415 57.4383 82.8466L57.5785 97.834C57.5785 98.7757 56.9173 99.5772 55.9756 99.5772L41.3889 99.7174H41.3489ZM26.7622 44.4365C26.2212 44.4365 25.56 44.6969 25.1593 45.0977C24.7586 45.4984 24.4981 46.1596 24.4981 46.7006L24.7586 66.9175C24.7586 70.0032 26.2212 72.9485 28.5054 75.0724L42.4308 86.9942C42.8316 87.2547 42.9718 87.7957 42.9718 88.1964V96.2311L54.3526 96.0908L54.2124 82.7064C54.2124 80.843 53.4109 79.0998 51.9282 77.8976L35.4581 64.3729C35.0574 64.1124 34.6566 63.9721 34.2559 63.9721C33.8552 63.9721 33.3142 64.1124 33.0537 64.3729C32.7932 64.6334 32.653 64.7736 32.5127 65.1743C32.2522 65.8356 31.4508 66.3765 30.6493 66.1161C29.8479 65.9758 29.3069 65.3146 29.3069 64.5131L29.1666 46.5804C29.0264 45.3782 27.9644 44.4365 26.7622 44.4365Z" fill="white"/>
<path d="M42.2718 79.7829C41.8711 79.7829 41.4703 79.6426 41.2099 79.3822L30.6305 69.8848C28.8873 68.4221 28.3464 65.8775 29.2881 63.8538C29.6888 63.0523 30.6305 62.6516 31.432 62.9121C32.2335 63.3128 32.6342 64.2545 32.3737 65.056C32.1132 65.8575 32.2335 66.6589 32.9147 67.3402L43.494 76.8375C44.1552 77.4987 44.2955 78.5807 43.6343 79.2419C43.2336 79.5024 42.8328 79.7829 42.2918 79.7829H42.2718Z" fill="white"/>
<path d="M62.6251 56.2397C53.3882 56.2397 45.8945 48.746 45.8945 39.5091C45.8945 32.6766 50.0421 26.5254 56.3336 23.9807C56.9948 23.7203 57.6761 23.8405 58.0768 24.3815C58.6178 24.9225 58.738 25.5837 58.4775 26.1247C57.8163 27.7276 57.5358 29.3305 57.5358 31.0737C57.5358 38.4271 63.5668 44.4582 70.9202 44.4582C72.6634 44.4582 74.2664 44.1977 75.8693 43.5164C76.5305 43.256 77.2117 43.3762 77.6125 43.9172C78.1535 44.4581 78.2737 45.1194 78.0132 45.6603C75.4686 52.0921 69.4576 56.2397 62.6251 56.2397ZM54.3299 28.8096C51.1241 31.3542 49.1204 35.101 49.1204 39.3889C49.1204 46.7423 55.1514 52.7733 62.5049 52.7733C66.7927 52.7733 70.5396 50.7697 73.0842 47.5438C72.423 47.684 71.6215 47.684 70.8 47.684C61.7034 47.8243 54.2097 40.3306 54.2097 31.0937C54.2097 30.2923 54.2097 29.6311 54.35 28.8096H54.3299Z" fill="white"/>
<path d="M80.9584 34.4192C78.1533 34.4192 75.8691 32.135 75.8691 29.3299C75.8691 26.5248 78.1533 24.3809 80.9584 24.3809C83.7636 24.3809 86.0477 26.665 86.0477 29.4702C86.0477 32.2753 83.7636 34.4192 80.9584 34.4192ZM80.9584 27.727C80.0167 27.727 79.2153 28.5284 79.2153 29.4702C79.2153 30.4119 80.0167 31.2133 80.9584 31.2133C81.9002 31.2133 82.7016 30.4119 82.7016 29.4702C82.7016 28.5284 81.9002 27.727 80.9584 27.727Z" fill="white"/>
<path d="M37.4584 44.4559C34.6533 44.4559 32.3691 42.1718 32.3691 39.3666C32.3691 36.5615 34.6533 34.2773 37.4584 34.2773C40.2636 34.2773 42.5477 36.5615 42.5477 39.3666C42.5477 42.1718 40.2636 44.4559 37.4584 44.4559ZM37.4584 37.7637C36.5167 37.7637 35.7153 38.5652 35.7153 39.5069C35.7153 40.4486 36.5167 41.2501 37.4584 41.2501C38.4002 41.2501 39.2016 40.4486 39.2016 39.5069C39.2016 38.5652 38.4002 37.7637 37.4584 37.7637Z" fill="white"/>
</svg>
