<svg width="122" height="122" viewBox="0 0 122 122" fill="none" xmlns="http://www.w3.org/2000/svg">
<rect width="121.18" height="121.18" rx="24.2359" fill="#03524D"/>
<g clip-path="url(#clip0_560_393)">
<path d="M111.736 51.1977C110.606 52.4405 109.523 53.7342 108.323 54.9082C107.753 55.4659 106.968 55.3385 106.421 54.7324C105.879 54.134 105.874 53.4311 106.434 52.8377C107.108 52.1247 107.849 51.4728 108.704 50.6578C106.74 50.3726 105.001 50.0594 103.246 49.8862C101.715 49.7334 100.678 49.0866 100.046 47.6706C99.3254 46.0612 98.4702 44.5103 97.5762 42.7429C96.6977 44.4823 95.8528 46.0051 95.148 47.5891C94.5079 49.028 93.4894 49.7614 91.9008 49.8888C90.6543 49.9881 89.4208 50.2351 88.1795 50.4184C88.1562 50.5178 88.1328 50.6145 88.1095 50.7139C88.4749 50.8565 88.8273 51.0755 89.2031 51.1341C91.4992 51.4855 93.8004 51.8267 96.1042 52.1221C97.4492 52.2953 98.4262 52.9141 98.8719 54.1773C99.3358 55.4862 98.8926 56.5736 97.926 57.549C96.4437 59.0439 95.0184 60.5897 93.7926 61.8757C94.2409 61.6465 95.0469 61.2722 95.8114 60.8316C96.9801 60.1568 98.1048 60.1618 99.2943 60.8087C100.927 61.6975 102.596 62.5226 104.402 63.4521C104.234 62.4054 104.07 61.5141 103.954 60.6177C103.811 59.5379 104.239 58.8885 105.117 58.7663C105.996 58.6415 106.618 59.1432 106.817 60.1899C107.012 61.2187 107.175 62.2552 107.333 63.2891C107.494 64.3561 107.136 65.2398 106.255 65.879C105.345 66.5411 104.353 66.6379 103.337 66.1235C101.645 65.2678 99.9474 64.4147 98.2785 63.5132C97.7628 63.2356 97.3715 63.228 96.8609 63.5132C95.7414 64.1422 94.5934 64.7305 93.4324 65.2831C92.9452 65.5149 92.7767 65.767 92.8882 66.3094C93.1603 67.6464 93.3417 69.0012 93.6034 70.3407C93.8678 71.6981 93.6345 72.8822 92.4476 73.7354C91.2633 74.5834 90.0453 74.4561 88.804 73.8016C86.7853 72.7345 84.7432 71.7133 82.727 70.6387C82.2268 70.3713 81.8329 70.328 81.3069 70.6157C79.5576 71.5682 77.7799 72.4748 75.9943 73.3661C75.5408 73.5928 75.419 73.8474 75.5123 74.3389C75.8751 76.2412 76.1861 78.1538 76.5359 80.0561C76.8081 81.528 76.4478 82.7886 75.2143 83.6978C73.9859 84.6044 72.6513 84.6324 71.2934 83.9346C69.2072 82.8599 67.1133 81.7929 65.035 80.7055C64.0787 80.2063 63.7755 79.4551 64.1746 78.686C64.597 77.866 65.3926 77.675 66.411 78.1945C68.3883 79.203 70.3475 80.2445 72.3352 81.2301C72.6643 81.3931 73.167 81.472 73.4676 81.3345C73.6439 81.253 73.6724 80.6546 73.6153 80.3108C73.0996 77.2446 72.5451 74.181 72.0086 71.1174C71.7728 69.7703 72.1356 68.6192 73.1541 67.654C75.4112 65.5174 77.6607 63.368 79.8815 61.1958C80.1666 60.9182 80.278 60.4674 80.4672 60.0982C80.1018 59.9352 79.7494 59.6856 79.3684 59.6271C76.2742 59.1585 73.1748 58.7103 70.0702 58.2901C68.6268 58.094 67.6575 57.3529 67.0304 56.0796C65.7062 53.398 64.3664 50.7215 62.9929 48.0628C62.783 47.6554 62.3631 47.3498 62.0392 46.9958C61.7412 47.337 61.3577 47.635 61.1581 48.0246C59.8054 50.6578 58.4759 53.3038 57.175 55.9599C56.5038 57.33 55.4776 58.1169 53.9149 58.3181C50.9373 58.7026 47.9675 59.1432 45.0028 59.6016C44.5364 59.6729 44.1036 59.9581 43.6553 60.144C43.9092 60.554 44.0958 61.0302 44.4301 61.3613C46.5603 63.4444 48.706 65.5149 50.8855 67.5496C52.0024 68.5912 52.36 69.8059 52.1009 71.26C51.5593 74.2905 51.0202 77.3236 50.5123 80.3591C50.4579 80.6928 50.5097 81.2199 50.7196 81.3676C50.9373 81.5179 51.4556 81.4007 51.764 81.2479C53.7491 80.2573 55.7108 79.2208 57.6881 78.2098C58.7143 77.6852 59.5073 77.8482 59.9427 78.6402C60.3755 79.4271 60.0619 80.1962 59.0512 80.7233C56.9988 81.7954 54.9386 82.8548 52.8809 83.9142C51.5334 84.6069 50.1961 84.612 48.9548 83.7156C47.6746 82.7912 47.3222 81.5077 47.6073 79.9975C47.9675 78.0952 48.3096 76.1878 48.5972 74.2753C48.6387 74.0028 48.4106 73.5367 48.167 73.4043C46.3322 72.4035 44.4742 71.4434 42.5953 70.5266C42.3206 70.3942 41.8438 70.4528 41.551 70.5979C39.4778 71.6268 37.4176 72.6862 35.3729 73.771C34.1005 74.4459 32.8566 74.591 31.6489 73.6972C30.475 72.8288 30.2703 71.6395 30.545 70.2847C30.8093 68.9783 30.97 67.6515 31.2472 66.3476C31.3716 65.7568 31.1643 65.4945 30.6616 65.25C29.301 64.5955 27.9716 63.3833 26.6111 63.3604C25.3024 63.3375 23.9678 64.5166 22.6461 65.1762C21.9827 65.5047 21.3478 65.8892 20.6662 66.177C18.6293 67.0352 16.5017 65.4792 16.8049 63.3273C17.0667 61.4734 17.401 59.6296 17.7586 57.7909C17.8752 57.1874 17.7534 56.7927 17.2947 56.3725C15.9938 55.1832 14.7447 53.9379 13.4645 52.7231C12.5808 51.8853 12.1558 50.9252 12.5549 49.7207C12.967 48.4754 13.9232 47.9482 15.1697 47.7776C16.9293 47.5357 18.6812 47.2428 20.4434 47.0442C21.055 46.9754 21.3297 46.708 21.5733 46.2012C22.2885 44.7089 23.0815 43.2522 23.789 41.7599C24.3617 40.5885 25.121 39.7353 26.5541 39.7277C27.982 39.7201 28.7672 40.5401 29.3296 41.7268C30.037 43.2217 30.8326 44.6758 31.5453 46.1707C31.8018 46.7106 32.0998 46.9983 32.7503 47.0594C34.0979 47.1842 35.4403 47.3931 36.7749 47.6273C37.2906 47.719 37.5316 47.5815 37.7415 47.1308C38.2417 46.0663 38.7936 45.0247 39.3223 43.9729C39.9054 42.8168 40.8331 42.175 42.1677 42.1827C43.5024 42.1903 44.4171 42.8473 44.995 44.0035C46.0498 46.1096 47.0812 48.2258 48.1852 50.3064C48.3717 50.6578 48.8356 51.022 49.2269 51.0908C51.1654 51.432 53.1219 51.6587 55.0681 51.9617C55.6642 52.0534 55.9959 51.9082 56.2654 51.3403C57.0662 49.6443 57.9421 47.9813 58.7765 46.298C59.44 44.9559 60.474 44.1512 62.0314 44.1359C63.6304 44.1206 64.6955 44.9279 65.3796 46.3056C66.2011 47.9584 67.0667 49.5908 67.8519 51.2614C68.1266 51.842 68.422 52.0738 69.0932 51.9643C71.0368 51.6485 72.996 51.4295 74.9344 51.0882C75.3231 51.0195 75.7844 50.6502 75.971 50.2988C77.0465 48.2742 78.0675 46.2242 79.073 44.1639C79.6716 42.939 80.5683 42.1877 81.9962 42.1827C83.4267 42.175 84.3389 42.9314 84.9324 44.1487C85.3936 45.0935 85.8938 46.0179 86.3317 46.9729C86.5728 47.5 86.8267 47.7521 87.4901 47.6197C88.7548 47.3701 90.0376 47.1766 91.3229 47.0747C92.0537 47.0162 92.3829 46.68 92.6653 46.0815C93.3857 44.5587 94.1736 43.0638 94.9147 41.5485C95.4641 40.4255 96.2778 39.715 97.6125 39.7277C98.9004 39.7404 99.696 40.4306 100.232 41.518C101.007 43.0867 101.821 44.6376 102.575 46.2165C102.819 46.7258 103.104 46.983 103.71 47.0518C105.314 47.2326 106.898 47.5866 108.504 47.7165C110.044 47.8413 111.122 48.4728 111.741 49.8607V51.1952L111.736 51.1977ZM49.157 70.6539C49.2295 70.5954 49.3021 70.5343 49.3772 70.4757C49.1596 70.1421 48.9937 69.755 48.7138 69.4825C46.4618 67.2949 44.1917 65.1227 41.9164 62.958C40.8461 61.9394 40.434 60.7323 40.8746 59.324C41.3281 57.8775 42.3725 57.0855 43.8963 56.8741C46.9646 56.4463 50.0329 56.0108 53.0986 55.5499C53.5703 55.4786 54.016 55.2519 54.4747 55.0966C54.4462 54.982 54.4203 54.8674 54.3918 54.7528C52.4222 54.465 50.4553 54.1493 48.4806 53.8946C47.1745 53.7265 46.296 53.0746 45.7284 51.921C44.7333 49.8913 43.7045 47.8795 42.686 45.8625C42.5487 45.59 42.3906 45.3277 42.1574 44.9101C41.9241 45.3201 41.7635 45.5799 41.6261 45.8498C40.6206 47.8387 39.5996 49.82 38.6304 51.8242C38.0369 53.0491 37.1299 53.7367 35.7409 53.9073C33.5303 54.1798 31.3302 54.5236 29.1248 54.8445C28.7646 54.898 28.4122 54.9896 27.912 55.0915C28.2645 55.4557 28.477 55.6849 28.7024 55.9039C30.3428 57.4828 31.9729 59.0668 33.6314 60.6279C34.5799 61.5217 34.8883 62.5735 34.6499 63.829C34.2741 65.8255 33.932 67.8272 33.5848 69.8288C33.4967 70.3407 33.4396 70.8577 33.3463 71.5402C33.8024 71.3263 34.0901 71.1989 34.37 71.0563C36.3136 70.0555 38.2805 69.0929 40.193 68.036C41.5406 67.2924 42.7845 67.2975 44.1243 68.0437C45.7751 68.963 47.4777 69.7881 49.157 70.6539ZM95.9228 54.9922C93.479 54.6357 90.9031 54.2409 88.3194 53.8946C87.0548 53.724 86.1711 53.1179 85.6139 51.9999C84.6084 49.9753 83.5926 47.9584 82.5767 45.9389C82.4264 45.6384 82.2528 45.3507 82.004 44.9025C81.7656 45.3277 81.6049 45.5875 81.4675 45.86C80.4491 47.8769 79.4203 49.8887 78.4225 51.9184C77.855 53.072 76.9817 53.7393 75.673 53.8946C74.2943 54.0601 72.9234 54.2715 71.5499 54.4752C70.9358 54.5669 70.3294 54.6891 69.7178 54.7961C69.7048 54.9082 69.6918 55.0202 69.6789 55.1323C70.1661 55.2774 70.6429 55.4837 71.1405 55.5575C74.1103 56.0032 77.0802 56.4361 80.0552 56.8334C81.6438 57.0448 82.7892 57.7807 83.2712 59.3189C83.7532 60.8596 83.1831 62.0871 82.0325 63.1643C79.8116 65.2475 77.6218 67.3637 75.4372 69.485C75.1573 69.7575 74.9888 70.1421 74.7686 70.4757C74.8411 70.5368 74.9163 70.5979 74.9888 70.6565C76.7536 69.7473 78.5314 68.8586 80.2832 67.924C81.4338 67.3102 82.5352 67.3 83.691 67.9138C85.7357 68.9986 87.8037 70.0453 89.8639 71.0996C90.1257 71.2346 90.4055 71.3339 90.7995 71.502C90.7476 71.0767 90.7295 70.8271 90.688 70.5852C90.3278 68.4893 90.0427 66.3756 89.5737 64.3052C89.1824 62.5786 89.7136 61.3435 90.9809 60.1491C92.699 58.5295 94.2591 56.7443 95.9176 54.9947L95.9228 54.9922ZM19.7203 63.4699C21.3633 62.6219 22.8405 61.9674 24.1984 61.127C25.844 60.1084 27.3756 60.0982 28.9771 61.1474C29.5135 61.4988 30.12 61.7509 30.6953 62.0489C29.0989 60.5489 27.6321 58.9879 26.1317 57.4548C25.1961 56.4998 24.823 55.4149 25.2817 54.1518C25.7248 52.932 26.6681 52.3055 27.9716 52.1349C30.2418 51.8344 32.5093 51.5084 34.7717 51.1621C35.2044 51.0959 35.6139 50.8794 36.0337 50.7317C36.0078 50.6273 35.9819 50.5254 35.956 50.421C34.782 50.2427 33.6107 49.9779 32.429 49.9066C30.7264 49.8022 29.6224 49.0535 28.9486 47.5C28.2722 45.944 27.4378 44.4542 26.5748 42.7429C25.6937 44.4874 24.8489 46.0077 24.1466 47.5891C23.5091 49.0254 22.488 49.741 20.9047 49.8938C19.1528 50.0619 17.4139 50.3828 15.8098 50.6145C17.0459 51.9159 18.2406 53.291 19.5597 54.5313C20.6351 55.5423 20.9617 56.6475 20.6714 58.0507C20.3138 59.7849 20.0521 61.537 19.7152 63.475L19.7203 63.4699Z" fill="white"/>
</g>
<defs>
<clipPath id="clip0_560_393">
<rect width="99.3185" height="52.1422" fill="white" transform="translate(12.4141 37.2446)"/>
</clipPath>
</defs>
</svg>
