<svg width="112" height="111" viewBox="0 0 112 111" fill="none" xmlns="http://www.w3.org/2000/svg">
<rect x="0.689941" width="110.651" height="110.651" rx="22.1303" fill="#06635D"/>
<path d="M55.7771 81.9477C55.6518 81.9477 55.419 81.9477 55.2938 81.8455L23.8459 73.2601C23.2552 73.0703 22.772 72.676 22.772 72.092V35.6186C22.772 35.2243 23.0046 34.8447 23.4879 34.5527C23.9712 34.3629 24.4365 34.3629 24.9198 34.4505L30.898 36.8889C31.6139 37.1809 31.9719 37.9547 31.6139 38.5534C31.2559 39.1374 30.3073 39.4294 29.5734 39.1374L25.8685 37.5751V71.3181L55.7591 79.4071L85.6499 71.3181V37.5751L81.8195 39.1374C81.1036 39.4294 80.1371 39.2396 79.7791 38.5534C79.4211 37.9693 79.6538 37.1955 80.4951 36.8889L86.4732 34.4505C86.9565 34.2607 87.4218 34.2607 87.9051 34.5527C88.3883 34.7425 88.621 35.1367 88.621 35.6186V72.1942C88.621 72.676 88.2631 73.1725 87.5471 73.3623L56.0992 81.9477C56.0992 81.8455 55.8665 81.9477 55.7412 81.9477H55.7771Z" fill="white"/>
<path d="M31.8635 87.9926C31.5055 87.9926 31.2729 87.8903 31.0223 87.8027C30.6643 87.6129 30.4316 87.2187 30.4316 86.8245V74.6326C30.4316 73.9464 31.1476 73.3623 31.9888 73.3623C32.83 73.3623 33.546 73.9464 33.546 74.6326V85.0724L55.5434 79.5093C56.3846 79.3195 57.2259 79.6992 57.4586 80.2832C57.6913 80.9695 57.2259 81.6411 56.51 81.8455L32.5974 87.9926H31.8814H31.8635Z" fill="white"/>
<path d="M79.6919 87.9921C79.5666 87.9921 79.3339 87.9921 79.2086 87.8899L55.296 81.7429C54.7054 81.5531 54.2222 81.1588 54.2222 80.5748V68.4851C54.2222 67.7989 54.9381 67.2148 55.7793 67.2148C56.6206 67.2148 57.3365 67.7989 57.3365 68.4851V79.801L78.26 85.0719V74.6322C78.26 73.9459 78.9759 73.3619 79.8172 73.3619C80.6584 73.3619 81.3744 73.9459 81.3744 74.6322V86.8241C81.3744 87.2183 81.1417 87.5979 80.7837 87.8023C80.3005 87.9045 80.0678 87.9921 79.7098 87.9921H79.6919Z" fill="white"/>
<path d="M55.7776 69.7559H30.4331C29.5919 69.7559 28.876 69.1718 28.876 68.4856V31.9099C28.876 31.2237 29.5919 30.6396 30.4331 30.6396H50.9987C54.471 30.6396 57.3348 32.9758 57.3348 35.8084C57.3348 36.4947 56.6188 37.0787 55.7776 37.0787C54.9364 37.0787 54.2204 36.4947 54.2204 35.8084C54.2204 34.3483 52.7885 33.078 50.8734 33.078H31.865V67.2153H55.7776C56.6188 67.2153 57.3348 67.7993 57.3348 68.4856C57.3348 69.1718 56.6188 69.7559 55.7776 69.7559Z" fill="white"/>
<path d="M49.7999 38.0562H36.4117C35.5704 38.0562 34.8545 37.4722 34.8545 36.7859C34.8545 36.0997 35.5704 35.5156 36.4117 35.5156H49.7999C50.6411 35.5156 51.357 36.0997 51.357 36.7859C51.357 37.4722 50.6411 38.0562 49.7999 38.0562Z" fill="white"/>
<path d="M49.7999 41.6646H36.4117C35.5704 41.6646 34.8545 41.0806 34.8545 40.3943C34.8545 39.7081 35.5704 39.124 36.4117 39.124H49.7999C50.6411 39.124 51.357 39.7081 51.357 40.3943C51.357 41.0806 50.6411 41.6646 49.7999 41.6646Z" fill="white"/>
<path d="M49.7999 45.3721H36.4117C35.5704 45.3721 34.8545 44.7881 34.8545 44.1018C34.8545 43.4156 35.5704 42.8315 36.4117 42.8315H49.7999C50.6411 42.8315 51.357 43.4156 51.357 44.1018C51.357 44.7881 50.6411 45.3721 49.7999 45.3721Z" fill="white"/>
<path d="M49.7999 48.9791H36.4117C35.5704 48.9791 34.8545 48.395 34.8545 47.7088C34.8545 47.0225 35.5704 46.4385 36.4117 46.4385H49.7999C50.6411 46.4385 51.357 47.0225 51.357 47.7088C51.357 48.395 50.6411 48.9791 49.7999 48.9791Z" fill="white"/>
<path d="M49.7999 52.688H36.4117C35.5704 52.688 34.8545 52.104 34.8545 51.4177C34.8545 50.7315 35.5704 50.1475 36.4117 50.1475H49.7999C50.6411 50.1475 51.357 50.7315 51.357 51.4177C51.357 52.104 50.6411 52.688 49.7999 52.688Z" fill="white"/>
<path d="M49.7999 56.2935H36.4117C35.5704 56.2935 34.8545 55.7095 34.8545 55.0232C34.8545 54.337 35.5704 53.7529 36.4117 53.7529H49.7999C50.6411 53.7529 51.357 54.337 51.357 55.0232C51.357 55.7095 50.6411 56.2935 49.7999 56.2935Z" fill="white"/>
<path d="M49.7999 60.0025H36.4117C35.5704 60.0025 34.8545 59.4185 34.8545 58.7322C34.8545 58.046 35.5704 57.4619 36.4117 57.4619H49.7999C50.6411 57.4619 51.357 58.046 51.357 58.7322C51.357 59.4185 50.6411 60.0025 49.7999 60.0025Z" fill="white"/>
<path d="M49.7999 63.6094H36.4117C35.5704 63.6094 34.8545 63.0254 34.8545 62.3391C34.8545 61.6529 35.5704 61.0688 36.4117 61.0688H49.7999C50.6411 61.0688 51.357 61.6529 51.357 62.3391C51.357 63.0254 50.6411 63.6094 49.7999 63.6094Z" fill="white"/>
<path d="M75.2659 38.0562H61.7525C60.9112 38.0562 60.1953 37.4722 60.1953 36.7859C60.1953 36.0997 60.9112 35.5156 61.7525 35.5156H75.2659C76.1072 35.5156 76.8231 36.0997 76.8231 36.7859C76.6978 37.4722 75.9819 38.0562 75.2659 38.0562Z" fill="white"/>
<path d="M75.2659 41.663H61.7525C60.9112 41.663 60.1953 41.0789 60.1953 40.3927C60.1953 39.7064 60.9112 39.2246 61.7525 39.2246H75.2659C76.1072 39.2246 76.8231 39.8086 76.8231 40.4949C76.6978 41.0789 75.9819 41.663 75.2659 41.663Z" fill="white"/>
<path d="M75.2659 45.3721H61.7525C60.9112 45.3721 60.1953 44.7881 60.1953 44.1018C60.1953 43.4156 60.9112 42.8315 61.7525 42.8315H75.2659C76.1072 42.8315 76.8231 43.4156 76.8231 44.1018C76.8231 44.7881 75.9819 45.3721 75.2659 45.3721Z" fill="white"/>
<path d="M75.2659 48.9791H61.7525C60.9112 48.9791 60.1953 48.395 60.1953 47.7088C60.1953 47.0225 60.9112 46.4385 61.7525 46.4385H75.2659C76.1072 46.4385 76.8231 47.0225 76.8231 47.7088C76.8231 48.395 75.9819 48.9791 75.2659 48.9791Z" fill="white"/>
<path d="M75.2659 52.688H61.7525C60.9112 52.688 60.1953 52.104 60.1953 51.4177C60.1953 50.7315 60.9112 50.1475 61.7525 50.1475H75.2659C76.1072 50.1475 76.8231 50.7315 76.8231 51.4177C76.8231 52.104 75.9819 52.688 75.2659 52.688Z" fill="white"/>
<path d="M75.2659 56.2935H61.7525C60.9112 56.2935 60.1953 55.7095 60.1953 55.0232C60.1953 54.337 60.9112 53.7529 61.7525 53.7529H75.2659C76.1072 53.7529 76.8231 54.337 76.8231 55.0232C76.8231 55.7095 75.9819 56.2935 75.2659 56.2935Z" fill="white"/>
<path d="M75.2659 60.0025H61.7525C60.9112 60.0025 60.1953 59.4185 60.1953 58.7322C60.1953 58.046 60.9112 57.4619 61.7525 57.4619H75.2659C76.1072 57.4619 76.8231 58.046 76.8231 58.7322C76.6978 59.4185 75.9819 60.0025 75.2659 60.0025Z" fill="white"/>
<path d="M75.2659 63.6094H61.7525C60.9112 63.6094 60.1953 63.0254 60.1953 62.3391C60.1953 61.6529 60.9112 61.0688 61.7525 61.0688H75.2659C76.1072 61.0688 76.8231 61.6529 76.8231 62.3391C76.8231 63.0254 75.9819 63.6094 75.2659 63.6094Z" fill="white"/>
<path d="M81.2491 69.7564H66.3037C65.4625 69.7564 64.7465 69.1724 64.7465 68.4861C64.7465 67.7999 65.4625 67.2158 66.3037 67.2158H79.6919V33.0786H60.5582C58.7684 33.0786 57.2112 34.2466 57.2112 35.809V67.318H60.2003C61.0415 67.318 61.7575 67.9021 61.7575 68.5883C61.7575 69.2746 61.0415 69.8586 60.2003 69.8586H55.7793C54.9381 69.8586 54.2222 69.2746 54.2222 68.5883V35.8236C54.2222 32.9909 57.0859 30.6548 60.5582 30.6548H81.2491C82.0903 30.6548 82.8063 31.2388 82.8063 31.9251V68.5007C82.681 69.187 81.965 69.771 81.2491 69.771V69.7564Z" fill="white"/>
<path d="M66.3041 74.6334C65.9461 74.6334 65.5881 74.5312 65.2301 74.2392L63.315 72.6769L61.3998 74.2392C60.9165 74.6334 60.3259 74.721 59.7352 74.5312C59.1446 74.3414 58.7866 73.9472 58.7866 73.3631V67.2161C58.7866 66.5298 59.5026 65.9458 60.3438 65.9458H66.3219C67.1632 65.9458 67.8791 66.5298 67.8791 67.2161V73.3631C67.8791 73.845 67.5211 74.3414 66.9305 74.5312C66.6978 74.5312 66.4472 74.6334 66.3398 74.6334H66.3041ZM63.315 69.7567C63.6729 69.7567 64.0309 69.8589 64.3889 70.1509L64.8721 70.5451V68.5886H61.7578V70.5451L62.241 70.1509C62.4737 69.8589 62.8317 69.7567 63.315 69.7567Z" fill="white"/>
</svg>
