<svg width="122" height="122" viewBox="0 0 122 122" fill="none" xmlns="http://www.w3.org/2000/svg">
<rect width="121.18" height="121.18" rx="24.2359" fill="#03524D"/>
<g clip-path="url(#clip0_560_442)">
<path d="M82.0683 96.8359C80.9323 95.9253 80.8618 95.3582 81.7389 94.1236C85.0183 89.502 88.2766 84.8611 91.5912 80.2641C93.2555 77.9551 94.0534 75.4348 94.0358 72.5885C93.9953 65.7689 94.0234 58.9493 94.0217 52.1297C94.0217 51.8725 94.0322 51.6119 94.0041 51.3565C93.9002 50.4072 93.171 49.715 92.2376 49.6621C91.3023 49.6111 90.4992 50.2152 90.3055 51.1504C90.2403 51.4674 90.2333 51.8021 90.2333 52.1279C90.2298 57.5649 90.2086 63.002 90.2386 68.439C90.2544 71.3292 89.2822 73.7897 87.3026 75.8786C85.2068 78.089 83.1408 80.3276 81.0221 82.5168C80.6945 82.855 80.1697 83.1509 79.7153 83.1861C78.6973 83.2636 78.0456 82.1029 78.5423 81.2029C78.6973 80.9211 78.9262 80.6728 79.1499 80.4368C81.2158 78.2299 83.2923 76.0336 85.3529 73.8232C86.2036 72.9109 86.3128 71.7537 85.6752 70.7991C85.0729 69.8973 83.8612 69.4834 82.9612 70.0752C80.2066 71.884 77.3059 73.5062 74.9564 75.8751C72.2089 78.6438 70.7119 82.0413 69.9757 85.8315C69.3557 89.0247 68.6865 92.2073 67.9644 95.3793C67.8428 95.9095 67.3444 96.3551 67.0204 96.8394H66.1767C65.1781 96.223 65.0143 95.8214 65.2732 94.6238C66.1327 90.6468 66.883 86.6417 67.8834 82.7017C68.97 78.4183 71.3882 74.9011 74.8736 72.1958C76.8674 70.6494 78.9967 69.2721 81.1101 67.886C83.1021 66.5809 85.2032 66.7359 87.1018 68.21C87.1688 68.2629 87.241 68.3069 87.4171 68.4284C87.4171 68.0709 87.4171 67.8243 87.4171 67.5795C87.4171 62.3098 87.41 57.0401 87.4206 51.7686C87.4241 49.5177 88.6218 47.7741 90.5802 47.1048C93.215 46.203 95.9784 47.7195 96.6987 50.46C96.7322 50.5903 96.7886 50.7154 96.8344 50.8439V74.6158C96.7956 74.7461 96.734 74.8747 96.7181 75.0085C96.4416 77.5183 95.4307 79.7199 93.9741 81.7577C90.6384 86.4251 87.3326 91.1153 83.995 95.7827C83.7062 96.1878 83.2747 96.4889 82.9101 96.8394H82.0665L82.0683 96.8359Z" fill="white"/>
<path d="M54.6465 96.8351C54.0565 96.4353 53.7747 95.8823 53.6286 95.176C52.8765 91.509 52.128 87.8386 51.2844 84.191C50.2153 79.5729 47.5788 76.0134 43.6829 73.3609C42.1929 72.3465 40.6941 71.3425 39.1953 70.3404C38.0752 69.5918 36.9075 69.6887 36.1572 70.5746C35.3682 71.5046 35.3946 72.829 36.2717 73.7731C38.3464 76.0046 40.4405 78.2168 42.524 80.4395C42.7319 80.6596 42.9397 80.8904 43.0964 81.1457C43.4399 81.7041 43.3148 82.4473 42.8393 82.8735C42.3779 83.2874 41.6681 83.3438 41.1503 82.9863C40.9407 82.8418 40.754 82.6587 40.5779 82.472C38.5349 80.3074 36.5112 78.1252 34.4524 75.9764C32.4076 73.84 31.4037 71.3302 31.4266 68.3589C31.4671 62.9448 31.4389 57.5307 31.4354 52.1165C31.4354 51.7907 31.4266 51.4561 31.3596 51.139C31.1677 50.2302 30.3945 49.6349 29.4875 49.6578C28.5558 49.6807 27.7949 50.3606 27.6699 51.2993C27.6364 51.5529 27.647 51.8136 27.647 52.0707C27.647 58.9855 27.6628 65.8985 27.6382 72.8132C27.6294 75.5097 28.3814 77.9279 29.9736 80.0995C30.6657 81.0436 31.3403 82.0017 32.006 82.9651C32.6013 83.8264 32.5168 84.6242 31.8088 85.1333C31.1201 85.6282 30.2941 85.438 29.7147 84.5696C28.48 82.7238 27.1891 80.9062 26.0953 78.9794C25.1725 77.3537 24.8502 75.4974 24.8466 73.6269C24.829 66.3141 24.822 59.0013 24.8431 51.6886C24.8502 48.9286 26.9249 46.8257 29.5315 46.8345C32.2156 46.8433 34.2392 48.9181 34.248 51.7273C34.2639 57.0005 34.2533 62.2738 34.2533 67.5488C34.2533 67.8006 34.2533 68.0525 34.2533 68.3132C34.9261 67.9574 35.5285 67.5576 36.1872 67.3057C37.4764 66.8126 38.8343 66.8302 39.9791 67.5787C42.5628 69.2678 45.1905 70.9269 47.5717 72.8801C51.3319 75.9659 53.4031 80.1207 54.3595 84.862C55.0164 88.1186 55.7121 91.3681 56.3972 94.6212C56.6491 95.8206 56.4923 96.2222 55.4937 96.8386H54.6501L54.6465 96.8351Z" fill="white"/>
<path d="M38.7558 96.8352C38.4054 96.5041 38.0056 96.2117 37.715 95.8366C37.1003 95.044 36.5261 94.2162 35.9643 93.3849C35.4483 92.6205 35.5592 91.7927 36.2003 91.326C36.8484 90.8522 37.6639 90.9931 38.2222 91.7346C38.9108 92.6487 39.5766 93.5821 40.2089 94.5368C40.7813 95.4015 40.5893 96.0444 39.6012 96.837H38.7576L38.7558 96.8352Z" fill="white"/>
<path d="M64.7187 56.1342C63.8646 58.0786 63.0526 59.942 62.2266 61.8002C61.8603 62.6244 61.3319 62.9344 60.5904 62.8182C59.9846 62.7231 59.6728 62.3074 59.4474 61.7914C58.7341 60.1622 58.0208 58.533 57.3058 56.9039C57.2036 56.6714 57.0909 56.4442 56.9112 56.0567C55.1518 56.5939 53.3289 56.9743 51.6593 57.7087C49.9051 58.4802 48.9082 60.0495 48.7356 61.971C48.6071 63.4064 48.711 64.863 48.711 66.3636H51.4162C51.4162 65.6468 51.4162 64.9299 51.4162 64.2149C51.4162 63.9331 51.4021 63.6495 51.4391 63.373C51.543 62.6121 52.1735 62.0696 52.8816 62.1049C53.6001 62.1419 54.1778 62.6984 54.213 63.491C54.2536 64.4262 54.2219 65.3632 54.2219 66.4165C54.6481 66.4165 55.0355 66.4094 55.4212 66.4165C56.4428 66.4394 57.0345 66.929 57.0592 67.7656C57.0856 68.6286 56.4797 69.2081 55.4441 69.2204C53.4751 69.2433 51.5078 69.2274 49.5388 69.2274C48.8818 69.2274 48.2266 69.238 47.5697 69.2257C46.3492 69.2028 45.8191 68.6744 45.812 67.4538C45.8014 65.7454 45.8085 64.037 45.8085 62.2334C45.1727 62.2334 44.5721 62.2334 43.9715 62.2334C42.4956 62.2334 41.018 62.244 39.542 62.2282C38.6967 62.2194 38.1278 61.853 38.0538 61.1291C37.8689 59.3326 37.772 57.5185 38.4483 55.7907C39.3289 53.5416 41.0479 52.2506 43.3604 51.6923C43.9522 51.5496 44.5422 51.4052 45.1357 51.2696C45.6975 51.141 45.6376 50.8733 45.3065 50.5439C44.9754 50.2146 44.6073 49.9169 44.3062 49.5611C43.5647 48.684 43.0451 47.6766 42.9553 46.5265C42.7968 44.4746 42.5854 42.3981 43.1966 40.3884C44.4154 36.3798 49.3186 34.7542 52.7442 37.1829C52.878 37.278 53.0119 37.3696 53.218 37.5123C54.7731 34.3385 57.2547 32.4504 60.8229 32.4434C64.4 32.4381 66.9115 34.2839 68.4807 37.5105C69.7312 36.5454 71.0961 36.0029 72.6583 36.0452C75.8391 36.1332 78.4052 38.3788 78.7275 41.5685C78.8948 43.2347 78.835 44.9396 78.7046 46.6128C78.5866 48.1433 77.7395 49.3674 76.5929 50.3836C76.4045 50.5492 76.3058 50.8169 76.1667 51.0388C76.3886 51.1392 76.6052 51.259 76.8342 51.34C78.1498 51.8032 79.5835 52.0639 80.7617 52.7596C82.8065 53.9678 83.6695 55.9827 83.7312 58.334C83.7505 59.0596 83.7453 59.787 83.7312 60.5144C83.71 61.6945 83.1729 62.2299 81.9981 62.2334C79.985 62.2405 77.9737 62.2352 75.862 62.2352C75.862 62.7812 75.862 63.2849 75.862 63.7904C75.862 65.0321 75.8743 66.2756 75.8585 67.5172C75.8426 68.655 75.3125 69.2116 74.1783 69.2204C71.4836 69.2398 68.7889 69.2398 66.0925 69.2204C65.0551 69.2133 64.451 68.6357 64.4704 67.7726C64.4898 66.936 65.0833 66.4411 66.1013 66.4165C66.3831 66.4094 66.6631 66.4165 66.9449 66.4129C67.0823 66.4112 67.2179 66.3971 67.4469 66.3812C67.4469 65.4231 67.4169 64.4949 67.4539 63.5667C67.498 62.4659 68.4684 61.8107 69.3966 62.2264C69.9989 62.4959 70.2455 63.0031 70.2543 63.6389C70.2613 64.0845 70.256 64.5301 70.256 64.9757C70.256 65.4196 70.256 65.8634 70.256 66.3601H73.0353C72.9701 63.7111 73.6024 60.9195 71.3991 58.7567C70.7686 58.1367 69.9549 57.6013 69.1271 57.3054C67.7252 56.8035 66.244 56.5234 64.7187 56.1307V56.1342ZM55.4935 43.763C55.4935 44.3707 55.4618 44.9765 55.4987 45.5807C55.6396 47.8862 57.3427 49.8641 59.6271 50.4083C61.8902 50.9472 64.2784 49.9046 65.4796 47.9161C66.3584 46.4595 66.2633 44.8709 66.2228 43.284C66.2193 43.1307 66.0062 42.9405 65.8459 42.8419C65.1714 42.4227 64.4669 42.0511 63.7994 41.6213C63.4648 41.4047 63.2464 41.4364 62.9452 41.69C61.8708 42.5936 60.638 43.2347 59.2554 43.4513C58.0402 43.6415 56.7985 43.6626 55.4917 43.7648L55.4935 43.763ZM40.8277 59.4225C42.6365 59.4225 44.4136 59.4348 46.1907 59.4013C46.3668 59.3978 46.6046 59.1424 46.7014 58.9487C47.5204 57.3019 48.718 56.0126 50.3472 55.1708C51.1485 54.7569 52.0203 54.4821 52.8728 54.1404C51.6857 53.6032 49.7818 54.0207 49.891 51.8825H48.3781C48.2531 53.2052 48.0065 53.4905 46.7701 53.7829C45.9511 53.9766 45.1304 54.1721 44.3114 54.3623C41.645 54.9858 40.5283 56.5657 40.8295 59.4225H40.8277ZM68.8065 54.1492C68.8523 54.1897 68.8823 54.2355 68.921 54.2479C69.1641 54.3289 69.4089 54.4064 69.6555 54.4786C71.7654 55.1021 73.5002 56.3033 74.5164 58.2424C75.0659 59.2904 75.7088 59.5 76.7497 59.4418C78.1181 59.3643 79.4919 59.4225 80.8498 59.4225C81.2038 56.7031 80.0766 55.0228 77.5493 54.4011C76.8007 54.2162 76.054 54.0189 75.2967 53.8762C74.1519 53.6614 73.1902 53.2933 73.3223 51.8719H71.7813C71.8359 54.0242 69.9866 53.5962 68.8065 54.1475V54.1492ZM55.5111 40.8006C58.0543 41.0789 60.3069 40.6667 62.0734 38.6783C62.6247 38.0565 63.2023 38.0424 63.9773 38.4739C64.68 38.8667 65.3686 39.2841 66.1136 39.7209C65.698 36.991 63.1108 34.9866 60.4566 35.2544C57.4924 35.5555 55.3631 37.928 55.5111 40.7988V40.8006ZM52.591 43.9039C50.3401 44.8621 48.0382 44.9677 45.6605 44.9079C45.6605 45.1932 45.6517 45.3975 45.6605 45.6018C45.7504 47.511 47.1629 48.9641 48.984 49.0275C50.8984 49.0944 52.369 47.8139 52.5804 45.8466C52.6456 45.2478 52.591 44.6366 52.591 43.9039ZM75.9959 44.9026C73.62 44.9801 71.3321 44.8339 69.1183 43.9251C68.9668 45.7304 68.988 47.3824 70.6294 48.4533C71.8306 49.2371 73.1075 49.2705 74.3333 48.5273C75.6401 47.7347 76.1192 46.5018 75.9959 44.9008V44.9026ZM52.2669 40.9397C51.7103 39.4655 50.1393 38.6184 48.5137 38.8967C46.9744 39.1608 45.7609 40.5417 45.7556 42.074C48.0118 42.1708 50.2239 42.0617 52.2687 40.9397H52.2669ZM69.4089 40.9397C71.4713 42.0617 73.6922 42.1849 75.9712 42.0652C75.7792 40.362 74.6292 39.1115 73.1075 38.8914C71.4801 38.6554 69.9919 39.4691 69.4071 40.9397H69.4089ZM62.5119 53.3091H59.1304C59.2167 54.9946 60.254 56.3033 60.8441 57.7986C61.3865 56.2768 62.5155 55.0034 62.5119 53.3091ZM53.778 49.9451C53.8221 49.8711 53.8678 49.7954 53.9119 49.7214C53.5808 50.0103 53.2408 50.2921 52.9185 50.5932C52.6685 50.8292 52.6015 51.1216 52.9978 51.2308C54.0704 51.5285 55.1588 51.775 55.7911 51.9318C55.298 51.4457 54.5389 50.6954 53.778 49.9451ZM67.7586 49.7196C67.815 49.7866 67.8713 49.8553 67.9259 49.9222C67.1563 50.6848 66.3884 51.4474 65.8952 51.9371C66.5046 51.7838 67.5385 51.5214 68.5758 51.2643C69.069 51.141 69.0637 50.8874 68.7467 50.5827C68.4314 50.2797 68.0897 50.0067 67.7586 49.7196Z" fill="white"/>
<path d="M62.2227 27.2778C62.2227 27.6758 62.2632 28.0774 62.2139 28.4701C62.1223 29.2046 61.5235 29.7277 60.8383 29.7277C60.1532 29.7277 59.5245 29.2081 59.4681 28.4701C59.4065 27.6793 59.4065 26.8779 59.4681 26.0871C59.5227 25.3509 60.1515 24.8296 60.8366 24.8296C61.5235 24.8296 62.1223 25.3509 62.2139 26.0854C62.2614 26.4764 62.2227 26.8797 62.2227 27.2778Z" fill="white"/>
<path d="M53.0287 27.4678C53.4021 27.5664 53.6345 27.5594 53.7525 27.6721C54.4887 28.3766 55.2672 29.0529 55.8942 29.8472C56.294 30.3545 56.0492 30.9745 55.5842 31.4218C55.1369 31.8551 54.406 31.9537 53.9181 31.5416C53.2453 30.9727 52.5708 30.3651 52.0688 29.6535C51.8363 29.3241 51.861 28.6408 52.0424 28.2445C52.2132 27.8746 52.7469 27.6721 53.0269 27.4678H53.0287Z" fill="white"/>
<path d="M69.8431 28.6989C69.8219 29.8508 67.8335 31.8992 66.9969 31.7935C66.569 31.7389 66.0265 31.4342 65.8257 31.0784C65.6285 30.7279 65.6214 30.0393 65.8469 29.731C66.3787 29.0072 67.0427 28.3432 67.7684 27.8166C68.0748 27.5929 68.7476 27.6281 69.121 27.8113C69.4926 27.9944 69.7004 28.514 69.8413 28.6989H69.8431Z" fill="white"/>
<path d="M34.1117 86.9692C34.8813 86.9745 35.496 87.5839 35.4995 88.3413C35.503 89.1127 34.8285 89.7714 34.0588 89.7503C33.3156 89.7291 32.7027 89.0775 32.715 88.3201C32.7274 87.5469 33.3297 86.964 34.1117 86.971V86.9692Z" fill="white"/>
<path d="M60.8446 66.4336C61.6001 66.4389 62.2377 67.0765 62.2289 67.8232C62.2218 68.5665 61.5667 69.2076 60.8217 69.2005C60.0749 69.1935 59.4303 68.5418 59.4356 67.8021C59.4426 67.0536 60.0855 66.4301 60.8428 66.4354L60.8446 66.4336Z" fill="white"/>
</g>
<defs>
<clipPath id="clip0_560_442">
<rect width="72.0059" height="72.0059" fill="white" transform="translate(24.8301 24.8296)"/>
</clipPath>
</defs>
</svg>
