<svg width="111" height="111" viewBox="0 0 111 111" fill="none" xmlns="http://www.w3.org/2000/svg">
<rect x="0.000976562" width="110.651" height="110.651" rx="22.1303" fill="#06635D"/>
<path d="M53.6054 72.5326H47.5208C44.5462 72.5326 42.1123 74.9664 42.1123 77.9411V78.6172H39.4081C38.2993 78.6172 37.3799 79.5366 37.3799 80.6454C37.3799 81.7541 38.2993 82.6735 39.4081 82.6735H71.8591C72.9679 82.6735 73.8873 81.7541 73.8873 80.6454C73.8873 79.5366 72.9679 78.6172 71.8591 78.6172H69.1549V77.9411C69.1549 74.9664 66.7211 72.5326 63.7464 72.5326H57.6618V66.3398C56.9857 66.421 56.3097 66.448 55.6336 66.448C54.9575 66.448 54.2815 66.421 53.6054 66.3398V72.5326Z" fill="white"/>
<path d="M73.1566 54.6574C74.9414 53.9813 76.5099 52.8726 77.7538 51.6286C80.2688 48.8433 81.9184 45.517 81.9184 41.6229C81.9184 37.7288 78.8626 34.673 74.9684 34.673H73.4541C71.6963 31.0763 68.0185 28.5884 63.7458 28.5884H47.5203C43.2475 28.5884 39.5697 31.0763 37.812 34.673H36.2976C32.4035 34.673 29.3477 37.7288 29.3477 41.6229C29.3477 45.517 30.9973 48.8433 33.5122 51.6286C34.7562 52.8726 36.3246 53.9813 38.1094 54.6574C40.9219 61.5803 47.6825 66.448 55.633 66.448C63.5835 66.448 70.3442 61.5803 73.1566 54.6574ZM63.3131 46.0308L61.6365 48.0861C61.366 48.3835 61.1767 48.9785 61.2038 49.3841L61.366 52.0343C61.4742 53.6568 60.3114 54.4951 58.797 53.9002L56.3361 52.9267C55.9575 52.7915 55.3085 52.7915 54.9299 52.9267L52.469 53.9002C50.9547 54.4951 49.7918 53.6568 49.9 52.0343L50.0623 49.3841C50.0893 48.9785 49.9 48.3835 49.6296 48.0861L47.9529 46.0308C46.8983 44.7869 47.358 43.4077 48.9265 43.0021L51.4955 42.353C51.9011 42.2449 52.3879 41.8663 52.6043 41.5147L54.0375 39.2972C54.9299 37.9181 56.3361 37.9181 57.2285 39.2972L58.6618 41.5147C58.8781 41.8663 59.3649 42.2449 59.7705 42.353L62.3396 43.0021C63.908 43.4077 64.3678 44.7869 63.3131 46.0308Z" fill="white"/>
</svg>
