<svg width="122" height="122" viewBox="0 0 122 122" fill="none" xmlns="http://www.w3.org/2000/svg">
<rect width="121.18" height="121.18" rx="24.2359" fill="#03524D"/>
<g clip-path="url(#clip0_560_456)">
<path d="M102.852 76.2847C102.852 78.0384 101.267 79.4785 99.331 79.4785H20.9016C18.9652 79.4785 17.3809 78.0384 17.3809 76.2847C17.3809 74.531 18.9652 73.0909 20.9016 73.0909H99.331C101.267 73.0909 102.852 74.531 102.852 76.2847ZM64.2297 36.1237C64.124 33.9635 62.3285 32.2446 60.1222 32.2446C57.9159 32.2446 56.1438 33.9519 56.0147 36.1005C57.3291 35.9379 58.6787 35.8566 60.0283 35.8566C61.3779 35.8566 62.8448 35.9611 64.2179 36.1237H64.2297ZM96.1859 70.2687H24.0585C25.5137 51.8141 41.0986 37.2851 60.1222 37.2851C79.1457 37.2851 94.7307 51.8141 96.1859 70.2687ZM55.9912 40.4092C55.9912 40.4092 35.7707 44.7761 29.7385 66.9239H37.3784C37.3784 66.9239 41.6033 48.4461 55.9912 40.4092Z" fill="white"/>
</g>
<defs>
<clipPath id="clip0_560_456">
<rect width="85.4709" height="47.2339" fill="white" transform="translate(17.3809 32.2446)"/>
</clipPath>
</defs>
</svg>
