<svg width="112" height="111" viewBox="0 0 112 111" fill="none" xmlns="http://www.w3.org/2000/svg">
<rect x="0.845703" width="110.651" height="110.651" rx="22.1303" fill="#06635D"/>
<path d="M34.8635 69.6355C34.8635 68.4817 33.9282 67.5464 32.7744 67.5464C31.6207 67.5464 30.6853 68.4817 30.6853 69.6355H34.8635ZM30.6853 58.4938C30.6853 59.6475 31.6207 60.5828 32.7744 60.5828C33.9282 60.5828 34.8635 59.6475 34.8635 58.4938H30.6853ZM43.9161 43.8703C46.6013 43.8703 48.405 43.8748 49.7505 44.0556C51.0358 44.2285 51.5859 44.5271 51.9489 44.8901L54.9033 41.9357C53.6346 40.667 52.0559 40.1499 50.3072 39.9148C48.6186 39.6877 46.4832 39.6922 43.9161 39.6922V43.8703ZM57.1469 52.9229C57.1469 50.3559 57.1513 48.2204 56.9243 46.5318C56.6892 44.7832 56.172 43.2044 54.9033 41.9357L51.9489 44.8901C52.3119 45.2531 52.6106 45.8032 52.7834 47.0886C52.9643 48.434 52.9687 50.2378 52.9687 52.9229H57.1469ZM43.9161 39.6922C41.349 39.6922 39.2136 39.6877 37.525 39.9148C35.7763 40.1499 34.1976 40.667 32.9289 41.9357L35.8833 44.8901C36.2463 44.5271 36.7964 44.2285 38.0817 44.0556C39.4272 43.8748 41.2309 43.8703 43.9161 43.8703V39.6922ZM34.8635 52.9229C34.8635 50.2378 34.8679 48.434 35.0488 47.0886C35.2216 45.8032 35.5203 45.2531 35.8833 44.8901L32.9289 41.9357C31.6602 43.2044 31.143 44.7832 30.9079 46.5318C30.6809 48.2204 30.6853 50.3559 30.6853 52.9229H34.8635ZM34.8635 80.7771V69.6355H30.6853V80.7771H34.8635ZM34.8635 58.4938V52.9229H30.6853V58.4938H34.8635Z" fill="white"/>
<path d="M43.9158 80.7776V64.065C43.9158 58.8128 43.9158 56.1867 45.5475 54.555C47.1791 52.9233 49.8053 52.9233 55.0575 52.9233H60.6283C65.8806 52.9233 68.5067 52.9233 70.1384 54.555C71.4518 55.8684 71.708 57.8263 71.7579 61.2796M71.77 80.7776V73.1176" stroke="white" stroke-width="4.17813" stroke-linecap="round"/>
<path d="M82.9118 41.1459C82.9118 37.411 82.9118 35.5436 81.9198 34.1121C80.9277 32.6806 79.1792 32.025 75.6822 30.7136C68.8433 28.149 65.4239 26.8667 63.0261 28.5283C60.6284 30.1899 60.6284 33.8419 60.6284 41.1459V52.9226M82.9118 80.7768V52.9226" stroke="white" stroke-width="4.17813" stroke-linecap="round"/>
<path d="M35.5596 41.7812V37.6031C35.5596 34.9769 35.5596 33.6639 36.3754 32.8481C37.1912 32.0322 38.5043 32.0322 41.1304 32.0322H46.7013C49.3274 32.0322 50.6404 32.0322 51.4563 32.8481C52.2721 33.6639 52.2721 34.9769 52.2721 37.6031V41.7812" stroke="white" stroke-width="4.17813" stroke-linecap="round"/>
<path d="M43.916 30.6397V25.0688" stroke="white" stroke-width="4.17813" stroke-linecap="round"/>
<path d="M85.6972 80.7773L29.9888 80.7773" stroke="white" stroke-width="4.17813" stroke-linecap="round"/>
<path d="M52.272 61.2793H53.6647M63.4137 61.2793H59.2355" stroke="white" stroke-width="4.17813" stroke-linecap="round"/>
<path d="M52.272 69.6357H63.4137" stroke="white" stroke-width="4.17813" stroke-linecap="round"/>
</svg>
