<svg width="122" height="122" viewBox="0 0 122 122" fill="none" xmlns="http://www.w3.org/2000/svg">
<rect width="121.18" height="121.18" rx="24.2359" fill="#03524D"/>
<g clip-path="url(#clip0_560_474)">
<path d="M63.3861 22.3467C63.8915 22.3467 64.397 22.3467 64.9024 22.3467C64.9689 22.3794 65.0316 22.4303 65.1 22.4431C68.5164 23.065 70.6445 25.0909 71.663 28.1825C71.9708 29.1172 71.8758 30.1738 71.9689 31.2086C72.0886 31.2086 72.2615 31.2195 72.4344 31.2086C74.6366 31.0504 76.6279 31.616 78.4482 32.798C81.6689 34.8912 84.8915 36.9789 88.1198 39.0594C92.3342 41.7745 94.3559 45.5662 94.3483 50.4273C94.3274 65.2105 94.335 79.9937 94.354 94.7769C94.354 95.6807 94.126 96.3845 93.2785 96.8373H41.6869C40.8414 96.3845 40.6057 95.6825 40.6114 94.7805C40.6399 89.4048 40.6247 84.0291 40.6247 78.6534V77.7987C38.9432 78.7643 37.4212 79.6645 35.8688 80.5138C35.3482 80.7975 35.141 81.1121 35.1448 81.705C35.1752 86.0641 35.1448 90.4214 35.1752 94.7805C35.181 95.6844 34.9453 96.3863 34.0998 96.8373H25.9065C25.0591 96.3845 24.8121 95.6825 24.8311 94.7769C24.8748 92.6692 24.8444 90.5596 24.8463 88.4501C24.8463 87.0807 25.3878 86.3569 26.3911 86.3769C27.3715 86.3969 27.8807 87.0989 27.8807 88.4282C27.8807 90.2395 27.8807 92.049 27.8807 93.8803H32.1294C32.1294 93.5712 32.1294 93.3093 32.1294 93.0456C32.1294 89.143 32.137 85.2403 32.1256 81.3376C32.1218 79.9828 32.6804 78.9571 33.8984 78.2606C36.3077 76.8857 38.7075 75.4964 41.1226 74.1306C42.4983 73.3523 43.6535 74.007 43.6592 75.5527C43.6668 77.6132 43.6592 79.6736 43.663 81.7341C43.663 81.9614 43.6896 82.1887 43.7086 82.4888C44.9836 82.005 46.1693 81.5322 47.372 81.1085C47.8052 80.9557 47.923 80.7302 47.9211 80.3065C47.9021 77.615 47.9002 74.9253 47.9154 72.2338C47.9249 70.568 47.2998 69.2441 45.7246 68.4548C44.1532 67.6674 42.6655 67.922 41.2385 68.8713C39.2871 70.1698 37.2977 71.4155 35.352 72.7212C34.6565 73.1886 33.9459 73.4105 33.0946 73.3923C31.3845 73.3541 29.6706 73.3814 27.8826 73.3814C27.8826 74.2015 27.8883 74.9453 27.8826 75.6909C27.8731 76.7966 27.267 77.4932 26.3417 77.475C25.441 77.4586 24.852 76.7803 24.852 75.7164C24.8463 70.0679 24.8482 64.4194 24.852 58.7709C24.852 57.0542 25.4125 55.5066 26.6343 54.259C27.3069 53.5716 28.1601 53.0479 28.9467 52.4386C28.7263 52.295 28.447 52.1313 28.1924 51.9404C27.9131 51.733 27.6356 51.5184 27.3943 51.2729C24.9945 48.847 24.7608 45.9772 25.8229 43.0112C27.3316 38.7975 33.2314 37.3299 36.8283 40.1505C39.1826 41.9964 39.8172 44.4224 39.4961 47.1811C39.4258 47.7904 39.2529 48.3887 39.1142 49.0525C39.3821 48.9688 39.574 48.9142 39.7602 48.8506C42.6845 47.8522 45.6011 46.832 48.5387 45.8718C49.2132 45.6517 49.9676 45.659 50.6782 45.5281C50.91 45.4844 51.1665 45.3753 51.3299 45.2171C51.9095 44.6551 52.3826 43.9714 53.0267 43.4949C56.0061 41.2871 59.0311 39.1358 62.037 36.9626C62.246 36.8116 62.4455 36.6498 62.7534 36.4134C61.2352 35.9769 60.1654 35.1476 59.1926 34.1783C55.9757 30.9704 56.2854 26.3857 59.9089 23.6779C60.9331 22.9123 62.1472 22.6013 63.3861 22.3467ZM91.2758 67.7383C91.044 67.7383 90.8939 67.7383 90.7457 67.7383C86.1436 67.7383 81.5435 67.7292 76.9414 67.7547C76.5804 67.7565 76.1624 67.9311 75.8679 68.1475C71.2962 71.51 66.7455 74.8999 62.1738 78.2642C61.6798 78.6279 61.1231 78.9407 60.5492 79.1662C57.7238 80.2756 54.8812 81.3467 52.0463 82.4324C49.2588 83.4999 46.4714 84.5692 43.7048 85.6295V93.8767H91.2777V67.7365L91.2758 67.7383ZM50.9423 79.6973C51.2444 79.5918 51.4781 79.5172 51.7062 79.4299C54.2371 78.4625 56.7718 77.4986 59.2971 76.5148C59.6885 76.362 60.0666 76.1492 60.401 75.9019C65.1076 72.4284 69.8084 68.9477 74.4998 65.4542C75.0888 65.0159 75.6969 64.7795 76.4493 64.8177C77.2436 64.8577 78.0435 64.8268 78.8548 64.8268C78.8548 60.9077 78.8947 57.1015 78.8377 53.297C78.8092 51.4348 77.8782 49.9745 76.2517 48.9288C74.572 47.8504 72.8923 46.772 71.2354 45.6645C70.8326 45.3953 70.5191 45.3826 70.0707 45.5608C65.7802 47.2648 61.4879 48.9652 57.1709 50.6055C56.3994 50.8983 55.5121 50.9019 54.6836 51.0693C54.4784 51.1111 54.2637 51.2402 54.1117 51.3839C53.5132 51.9604 53.021 52.6732 52.3408 53.1315C48.4532 55.7485 44.5219 58.3054 40.6114 60.8914C40.3815 61.0441 40.0528 61.2824 40.0471 61.4879C39.9996 62.9991 40.0205 64.5122 40.0205 66.0107C40.1345 66.0289 40.163 66.0434 40.182 66.0343C40.3188 65.9743 40.4556 65.9088 40.5905 65.847C43.3723 64.5849 45.9925 64.8486 48.3867 66.6945C50.1785 68.0784 50.9309 69.9606 50.9385 72.132C50.948 74.6253 50.9404 77.1167 50.9404 79.6936L50.9423 79.6973ZM27.894 70.468C28.5705 70.468 29.1804 70.4007 29.7714 70.4789C32.2947 70.8117 34.4684 70.1588 36.378 68.5421C36.7675 68.213 37.0069 67.962 36.9974 67.4328C36.9613 65.2778 37.0127 63.121 36.9689 60.9641C36.9518 60.0894 37.2977 59.5184 38.0387 59.0364C42.1923 56.3249 46.3289 53.588 50.4673 50.8565C50.7162 50.6928 50.9727 50.5273 51.1817 50.3218C51.5789 49.929 51.6397 49.4562 51.3508 48.9888C51.0696 48.5305 50.6288 48.3196 50.0645 48.4396C49.8441 48.4869 49.6312 48.5705 49.4184 48.6433C46.6861 49.5762 43.9537 50.5073 41.2214 51.4421C37.7062 52.646 34.191 53.8517 30.6777 55.0556C29.0474 55.6139 27.9644 56.7105 27.9264 58.3599C27.8313 62.3535 27.8959 66.3507 27.8959 70.4662L27.894 70.468ZM77.5343 46.25C80.0082 44.3423 82.4403 42.4656 84.9238 40.5506C84.7205 40.3997 84.5913 40.2942 84.4507 40.2033C81.9406 38.5738 79.4325 36.9444 76.9186 35.3222C74.2319 33.5891 71.6725 33.6546 69.0712 35.5223C66.6657 37.2499 64.2696 38.9903 61.8679 40.7252C59.4472 42.4747 57.0226 44.2187 54.6076 45.9754C53.9293 46.4683 53.7583 47.052 54.0756 47.6067C54.391 48.1577 55.0123 48.3123 55.7952 48.0322C55.9377 47.9813 56.0726 47.9177 56.2132 47.8631C60.7659 46.0773 65.3223 44.3005 69.8674 42.4965C70.6692 42.1782 71.3475 42.2201 72.0658 42.702C73.8462 43.8932 75.657 45.0407 77.5286 46.2537L77.5343 46.25ZM87.5478 42.2619C84.9846 44.2405 82.4555 46.1937 79.8847 48.1777C81.6385 50.1691 81.9558 52.475 81.9102 54.9101C81.8532 57.938 81.8969 60.9678 81.8969 63.9975V64.7759H85.2354C85.2354 64.4612 85.2354 64.1976 85.2354 63.9339C85.2354 60.5168 85.2392 57.0997 85.2316 53.6826C85.2316 52.9751 85.4254 52.375 86.1265 52.0513C87.1887 51.5621 88.2604 52.3314 88.2642 53.6044C88.2775 57.0687 88.268 60.5349 88.268 64.0011C88.268 64.2594 88.268 64.5158 88.268 64.7759H91.2663C91.2663 59.4674 91.3632 54.2099 91.2264 48.9579C91.1561 46.2791 89.7747 44.0605 87.5459 42.2637L87.5478 42.2619ZM28.3539 45.99C28.3539 46.2809 28.3273 46.5719 28.3577 46.8593C28.5781 48.9706 30.6397 50.6019 32.7773 50.3564C34.552 50.1527 35.846 49.2634 36.3115 47.6176C36.8245 45.8027 36.7599 43.995 35.1486 42.5911C34.2651 41.8218 33.2029 41.4763 32.0116 41.6181C29.6915 41.8927 28.3273 43.5258 28.3558 45.99H28.3539ZM60.0096 29.0627C60.0248 31.1158 61.2466 32.3416 62.8218 33.2709C64.1537 34.0565 65.5921 33.9783 66.9165 33.2036C68.239 32.4289 68.8945 31.2504 68.8755 29.7428C68.8546 28.1552 67.8798 27.0968 66.7018 26.1766C65.3907 25.1527 63.9124 24.9618 62.379 25.6492C60.8457 26.3366 60.0837 27.5478 60.0115 29.0609L60.0096 29.0627Z" fill="white"/>
<path d="M26.3777 83.5839C25.5929 83.593 24.869 82.9111 24.8595 82.1545C24.85 81.4035 25.5625 80.7069 26.3492 80.6978C27.1339 80.6888 27.8578 81.3707 27.8673 82.1272C27.8768 82.8783 27.1643 83.5748 26.3777 83.5839Z" fill="white"/>
<path d="M84.0224 76.5024C83.3365 76.5024 82.7341 76.5187 82.1356 76.4987C81.1513 76.4642 80.5433 75.935 80.5129 75.1184C80.4825 74.2892 81.0373 73.6745 82.0121 73.6236C83.1712 73.5636 84.3359 73.5617 85.495 73.6181C86.5134 73.6672 87.0417 74.2419 87.0512 75.233C87.0702 77.4608 87.0664 79.6885 87.0512 81.9163C87.0455 82.9147 86.4222 83.5784 85.5444 83.5821C84.6665 83.5857 84.0338 82.9219 84.0243 81.929C84.0091 80.1632 84.0205 78.3955 84.0205 76.5006L84.0224 76.5024Z" fill="white"/>
<path d="M85.5495 86.3755C86.3419 86.3828 87.0506 87.072 87.043 87.8286C87.0354 88.5869 86.3153 89.2689 85.5267 89.2616C84.7382 89.2543 84.0257 88.5633 84.0333 87.8086C84.0409 87.0502 84.761 86.3701 85.5495 86.3755Z" fill="white"/>
</g>
<defs>
<clipPath id="clip0_560_474">
<rect width="69.5229" height="74.4888" fill="white" transform="translate(24.8301 22.3467)"/>
</clipPath>
</defs>
</svg>
