<svg width="122" height="122" viewBox="0 0 122 122" fill="none" xmlns="http://www.w3.org/2000/svg">
<rect width="121.18" height="121.18" rx="24.2359" fill="#03524D"/>
<path d="M33.0032 60.5634C33.0032 51.8232 33.0032 43.0809 33.0032 34.3407C33.0032 31.2648 34.2865 30 37.3912 30C49.8862 30 62.379 30 74.874 30C77.9502 30 79.2248 31.2822 79.227 34.3712C79.227 35.2419 79.1658 36.1192 79.262 36.9791C79.2948 37.2795 79.6774 37.7214 79.9704 37.7845C81.5992 38.1437 83.2521 38.3875 84.8897 38.7054C87.1023 39.1342 88.3157 40.7277 87.9287 42.9503C87.0148 48.2227 86.0113 53.4798 85.034 58.7435C83.7419 65.7096 82.4454 72.6712 81.1488 79.6373C80.6919 82.0884 80.3792 84.5788 79.7386 86.9799C78.9188 90.0536 77.7163 91.2313 74.4936 91.2096C62.1101 91.129 49.7244 91.1769 37.3387 91.1769C34.3084 91.1769 33.0032 89.8904 33.001 86.895C32.9988 78.1178 33.001 69.3406 33.001 60.5634H33.0032ZM35.2267 60.5939C35.2267 69.2971 35.2267 78.0002 35.2267 86.7034C35.2267 88.7214 35.4825 88.9826 37.4633 88.9826C49.919 88.9826 62.3746 88.9826 74.8303 88.9826C76.6668 88.9826 77.0166 88.643 77.0166 86.8558C77.0166 69.3406 77.0166 51.8254 77.0166 34.3124C77.0166 32.5557 76.6646 32.1987 74.9309 32.1987C62.403 32.1987 49.8731 32.1987 37.3453 32.1987C35.5546 32.1987 35.2289 32.5143 35.2289 34.2689C35.2289 43.0439 35.2289 51.8189 35.2289 60.5961L35.2267 60.5939ZM79.2664 39.8983V76.914C79.426 76.4481 79.5222 76.2566 79.5594 76.0541C80.1715 72.7866 80.7728 69.5169 81.385 66.2494C82.5284 60.1368 83.685 54.0284 84.8241 47.9157C85.1564 46.1372 85.4538 44.3544 85.7511 42.5693C85.8714 41.8509 85.668 41.1739 84.9203 41.002C83.0925 40.584 81.2363 40.2749 79.2686 39.8983H79.2664Z" fill="white"/>
<path d="M48.2232 61.5779C45.5274 58.3583 44.9808 54.6641 44.8868 50.8502C44.8343 48.7256 44.5304 46.5334 44.9371 44.4872C45.7723 40.2684 49.3666 37.6191 53.6847 37.6256C55.8295 37.63 58.0049 37.495 60.1104 37.7954C64.4022 38.4115 67.5768 41.8531 67.5724 46.1177C67.5702 49.5005 67.2291 52.9204 66.641 56.2532C66.3152 58.1036 65.174 59.8124 64.3934 61.5996C64.9859 61.6432 65.7402 61.6671 66.4836 61.7586C68.0512 61.9545 69.5051 62.5292 70.4387 63.8048C71.0028 64.5754 71.3504 65.6008 71.4881 66.5564C71.6652 67.7646 71.5231 69.0163 71.5319 70.2484C71.5362 71.0538 71.1055 71.4392 70.3425 71.5132C70.0889 71.5371 69.8331 71.524 69.5773 71.524C60.6198 71.524 51.6623 71.524 42.7048 71.524C40.8989 71.524 40.6955 71.3194 40.6934 69.5431C40.6934 68.9989 40.6934 68.4546 40.6934 67.9126C40.6934 64.4818 42.6764 62.2331 46.1221 61.7716C46.7321 61.6911 47.3464 61.6562 48.2188 61.5757L48.2232 61.5779ZM47.1147 48.0616C47.3224 50.8807 47.2218 53.4472 47.7662 55.8679C48.4221 58.7915 49.922 61.4081 53.1446 62.2745C54.4805 62.6337 55.9432 62.7186 57.3337 62.6402C59.6097 62.5118 61.4484 61.4864 62.8171 59.5664C65.2111 56.2075 65.0646 52.4197 64.8635 48.6102C64.8263 47.9136 64.295 47.5979 63.6413 47.648C62.7427 47.7198 61.842 47.8396 60.9587 48.0115C58.3635 48.5166 55.7901 49.1544 53.1796 49.555C51.1638 49.8641 49.2529 49.2088 47.1169 48.0594L47.1147 48.0616ZM69.3499 69.2927C69.3499 68.5178 69.3499 67.8669 69.3499 67.216C69.3499 65.5594 68.788 64.4296 67.1417 64.225C64.916 63.9485 62.5525 63.8375 60.3815 64.2903C57.7644 64.8367 55.2107 65.3134 52.6811 64.4231C50.7069 63.7286 48.7457 63.7896 46.7714 63.9376C43.6537 64.1705 42.2807 66.2255 43.0677 69.2927H69.3499ZM46.9463 45.2839C49.3535 47.119 51.9094 47.7547 54.8281 47.1996C58.3088 46.5356 61.6561 44.9596 65.3532 45.6366C64.6536 41.9707 62.1021 39.8417 58.4706 39.8265C56.9402 39.8199 55.4119 39.8221 53.8814 39.8265C50.2302 39.8352 47.8012 41.7595 46.9441 45.2839H46.9463Z" fill="white"/>
<path d="M55.6848 78.083C59.3273 78.083 62.9719 78.0939 66.6144 78.0743C67.4212 78.07 68.1951 78.2006 68.2148 79.117C68.2367 80.0988 67.443 80.2773 66.5903 80.2751C59.2311 80.2664 51.8718 80.273 44.5125 80.2664C43.3625 80.2664 42.6891 79.6634 42.9384 78.8798C43.1701 78.1505 43.7626 78.0765 44.4273 78.0787C48.1791 78.0917 51.933 78.0852 55.6848 78.0852V78.083Z" fill="white"/>
<path d="M50.0591 84.6506C48.2051 84.6506 46.3532 84.6375 44.4992 84.6571C43.6859 84.6658 42.9578 84.4699 42.925 83.5643C42.8901 82.6217 43.6181 82.4432 44.4358 82.4454C48.1788 82.4606 51.9219 82.4606 55.6649 82.4454C56.4782 82.4411 57.1976 82.5891 57.1713 83.5578C57.1473 84.4982 56.4236 84.6636 55.6168 84.6571C53.7628 84.6419 51.911 84.6528 50.0569 84.6528L50.0591 84.6506Z" fill="white"/>
</svg>
