<svg width="111" height="111" viewBox="0 0 111 111" fill="none" xmlns="http://www.w3.org/2000/svg">
<rect width="110.651" height="110.651" rx="22.1303" fill="#06635D"/>
<g clip-path="url(#clip0_203_16278)">
<path d="M59.3569 15.9561C59.8429 15.9561 60.3289 15.9561 60.8149 15.9561C60.8789 15.9879 60.9392 16.0374 61.0049 16.0498C64.29 16.6545 66.3363 18.6241 67.3156 21.6299C67.6116 22.5387 67.5202 23.5659 67.6097 24.572C67.7248 24.572 67.8911 24.5826 68.0574 24.572C70.1749 24.4181 72.0897 24.968 73.84 26.1173C76.9369 28.1523 80.0355 30.1821 83.1397 32.2048C87.1921 34.8446 89.1361 38.531 89.1288 43.2571C89.1087 57.6299 89.116 72.0027 89.1343 86.3755C89.1343 87.2543 88.915 87.9385 88.1002 88.3788H38.492C37.6789 87.9385 37.4524 87.256 37.4579 86.3791C37.4853 81.1526 37.4706 75.9261 37.4706 70.6996V69.8686C35.8537 70.8075 34.3902 71.6827 32.8975 72.5084C32.3969 72.7842 32.1978 73.0901 32.2014 73.6665C32.2307 77.9046 32.2014 82.141 32.2307 86.3791C32.2361 87.2578 32.0096 87.9403 31.1965 88.3788H23.3183C22.5034 87.9385 22.2659 87.256 22.2842 86.3755C22.3262 84.3263 22.297 82.2753 22.2988 80.2243C22.2988 78.893 22.8195 78.1893 23.7842 78.2087C24.7269 78.2282 25.2166 78.9107 25.2166 80.2031C25.2166 81.9641 25.2166 83.7234 25.2166 85.5039H29.3019C29.3019 85.2033 29.3019 84.9487 29.3019 84.6923C29.3019 80.898 29.3092 77.1037 29.2982 73.3093C29.2946 71.9921 29.8317 70.9949 31.0029 70.3177C33.3196 68.9811 35.6271 67.6302 37.9493 66.3024C39.2721 65.5457 40.383 66.1822 40.3885 67.6851C40.3958 69.6883 40.3885 71.6915 40.3921 73.6948C40.3921 73.9158 40.4177 74.1368 40.436 74.4285C41.6619 73.9582 42.802 73.4985 43.9585 73.0866C44.3751 72.938 44.4884 72.7188 44.4865 72.3068C44.4683 69.6901 44.4664 67.0751 44.4811 64.4583C44.4902 62.8387 43.8891 61.5516 42.3745 60.7842C40.8635 60.0186 39.4329 60.2662 38.0608 61.1891C36.1844 62.4515 34.2715 63.6627 32.4006 64.9321C31.7319 65.3865 31.0486 65.6022 30.23 65.5846C28.5857 65.5474 26.9377 65.574 25.2184 65.574C25.2184 66.3714 25.2239 67.0945 25.2184 67.8194C25.2093 68.8944 24.6265 69.5716 23.7367 69.5539C22.8707 69.538 22.3043 68.8785 22.3043 67.8442C22.2988 62.3525 22.3006 56.8608 22.3043 51.3691C22.3043 49.7 22.8432 48.1954 24.018 46.9825C24.6648 46.3142 25.4852 45.8049 26.2416 45.2126C26.0296 45.073 25.7611 44.9138 25.5162 44.7282C25.2477 44.5266 24.9809 44.318 24.7489 44.0793C22.4413 41.7207 22.2166 38.9306 23.2379 36.0469C24.6886 31.9502 30.3616 30.5233 33.8202 33.2657C36.0839 35.0603 36.6941 37.4189 36.3854 40.1011C36.3178 40.6934 36.1515 41.2751 36.0181 41.9205C36.2758 41.8391 36.4603 41.7861 36.6393 41.7242C39.4512 40.7535 42.2557 39.7616 45.0803 38.8281C45.7289 38.6141 46.4543 38.6212 47.1376 38.4939C47.3605 38.4515 47.6072 38.3454 47.7643 38.1916C48.3215 37.6452 48.7765 36.9804 49.3958 36.5172C52.2607 34.3707 55.1693 32.2791 58.0597 30.1662C58.2607 30.0194 58.4525 29.8621 58.7485 29.6322C57.2887 29.2079 56.2601 28.4016 55.3246 27.4592C52.2314 24.3403 52.5292 19.883 56.0134 17.2503C56.9982 16.5059 58.1657 16.2036 59.3569 15.9561ZM86.1744 60.0876C85.9515 60.0876 85.8072 60.0876 85.6647 60.0876C81.2396 60.0876 76.8163 60.0787 72.3911 60.1035C72.044 60.1053 71.6421 60.275 71.3589 60.4854C66.963 63.7546 62.5872 67.0503 58.1913 70.3213C57.7162 70.6749 57.1809 70.979 56.6291 71.1982C53.9123 72.2768 51.179 73.3182 48.4531 74.3737C45.7728 75.4116 43.0925 76.4512 40.4323 77.482V85.5003H86.1763V60.0858L86.1744 60.0876ZM47.3916 71.7145C47.6821 71.612 47.9068 71.5395 48.126 71.4546C50.5597 70.514 52.997 69.5769 55.4251 68.6204C55.8015 68.4719 56.1651 68.265 56.4866 68.0245C61.0123 64.6475 65.5324 61.2634 70.0434 57.8669C70.6098 57.4407 71.1944 57.2109 71.9179 57.248C72.6817 57.2869 73.4508 57.2569 74.231 57.2569C74.231 53.4466 74.2694 49.746 74.2145 46.0472C74.1871 44.2367 73.2919 42.8169 71.7279 41.8002C70.1128 40.7517 68.4977 39.7033 66.9045 38.6265C66.5172 38.3648 66.2157 38.3524 65.7845 38.5257C61.659 40.1824 57.5317 41.8356 53.3806 43.4304C52.6389 43.7151 51.7856 43.7186 50.989 43.8813C50.7917 43.9219 50.5852 44.0475 50.4391 44.1871C49.8636 44.7476 49.3904 45.4407 48.7363 45.8863C44.9981 48.4306 41.2179 50.9165 37.4579 53.4307C37.2368 53.5792 36.9207 53.8109 36.9152 54.0106C36.8695 55.4799 36.8896 56.951 36.8896 58.4079C36.9993 58.4256 37.0267 58.4397 37.0449 58.4309C37.1765 58.3725 37.308 58.3089 37.4378 58.2488C40.1126 57.0217 42.6321 57.2781 44.9342 59.0727C46.6571 60.4182 47.3806 62.2482 47.3879 64.3593C47.397 66.7833 47.3897 69.2056 47.3897 71.711L47.3916 71.7145ZM25.2294 62.7415C25.8798 62.7415 26.4663 62.6761 27.0345 62.7521C29.4608 63.0756 31.551 62.4409 33.3872 60.8691C33.7617 60.549 33.9919 60.305 33.9828 59.7905C33.9481 57.6953 33.9974 55.5984 33.9554 53.5014C33.939 52.651 34.2715 52.0958 34.984 51.6273C38.978 48.991 42.9555 46.3301 46.9348 43.6744C47.1741 43.5153 47.4208 43.3544 47.6218 43.1546C48.0036 42.7727 48.0621 42.313 47.7844 41.8586C47.514 41.413 47.0901 41.2079 46.5475 41.3246C46.3355 41.3706 46.1309 41.4519 45.9263 41.5226C43.299 42.4297 40.6716 43.3349 38.0443 44.2437C34.6643 45.4142 31.2842 46.5864 27.906 47.7569C26.3384 48.2997 25.297 49.3659 25.2604 50.9695C25.1691 54.8523 25.2312 58.7385 25.2312 62.7397L25.2294 62.7415ZM72.9612 39.1958C75.34 37.3411 77.6786 35.5164 80.0666 33.6546C79.8711 33.5079 79.7469 33.4053 79.6117 33.3169C77.1981 31.7327 74.7864 30.1485 72.3692 28.5714C69.7858 26.8864 67.3247 26.95 64.8235 28.7659C62.5104 30.4455 60.2065 32.1376 57.8971 33.8244C55.5695 35.5253 53.2381 37.2209 50.9159 38.9288C50.2637 39.408 50.0993 39.9756 50.4044 40.5148C50.7077 41.0506 51.3051 41.2008 52.0579 40.9286C52.1949 40.879 52.3246 40.8172 52.4598 40.7641C56.8374 39.0279 61.2187 37.3004 65.589 35.5465C66.36 35.2371 67.0123 35.2777 67.7029 35.7463C69.4149 36.9044 71.1561 38.02 72.9557 39.1994L72.9612 39.1958ZM82.5898 35.3184C80.1251 37.2421 77.6933 39.141 75.2213 41.07C76.9076 43.0061 77.2127 45.248 77.1689 47.6155C77.1141 50.5593 77.1561 53.505 77.1561 56.4506V57.2074H80.3662C80.3662 56.9015 80.3662 56.6451 80.3662 56.3887C80.3662 53.0665 80.3699 49.7442 80.3626 46.422C80.3626 45.7342 80.549 45.1508 81.2231 44.836C82.2445 44.3604 83.2749 45.1083 83.2786 46.346C83.2914 49.7142 83.2822 53.0842 83.2822 56.4542C83.2822 56.7052 83.2822 56.9545 83.2822 57.2074H86.1653C86.1653 52.0463 86.2585 46.9348 86.1269 41.8285C86.0593 39.2241 84.7311 37.067 82.5879 35.3202L82.5898 35.3184ZM25.6715 38.943C25.6715 39.2259 25.6459 39.5088 25.6752 39.7881C25.8871 41.8409 27.8695 43.4269 29.9249 43.1882C31.6314 42.9901 32.8756 42.1256 33.3232 40.5254C33.8165 38.7609 33.7544 37.0034 32.2051 35.6384C31.3555 34.8905 30.3342 34.5546 29.1886 34.6925C26.9578 34.9595 25.6459 36.5472 25.6734 38.943H25.6715ZM56.1103 22.4856C56.1249 24.4818 57.2997 25.6735 58.8143 26.577C60.0951 27.3408 61.4781 27.2648 62.7516 26.5115C64.0232 25.7583 64.6536 24.6126 64.6353 23.1469C64.6152 21.6033 63.6779 20.5743 62.5452 19.6797C61.2845 18.6842 59.863 18.4986 58.3886 19.1669C56.9142 19.8352 56.1815 21.0128 56.1121 22.4838L56.1103 22.4856Z" fill="white"/>
<path d="M23.7705 75.4936C23.0159 75.5024 22.3198 74.8394 22.3106 74.1038C22.3015 73.3736 22.9866 72.6964 23.743 72.6876C24.4976 72.6787 25.1937 73.3418 25.2029 74.0773C25.212 74.8075 24.5269 75.4847 23.7705 75.4936Z" fill="white"/>
<path d="M79.2019 68.6087C78.5423 68.6087 77.9631 68.6246 77.3876 68.6051C76.4412 68.5715 75.8565 68.057 75.8273 67.2631C75.7981 66.4569 76.3316 65.8593 77.2689 65.8098C78.3834 65.7514 79.5033 65.7497 80.6179 65.8045C81.5972 65.8522 82.1051 66.4109 82.1142 67.3745C82.1325 69.5404 82.1288 71.7064 82.1142 73.8723C82.1087 74.8429 81.5095 75.4883 80.6654 75.4918C79.8213 75.4954 79.2128 74.85 79.2037 73.8846C79.1891 72.1678 79.2001 70.4492 79.2001 68.6069L79.2019 68.6087Z" fill="white"/>
<path d="M80.668 78.2066C81.4299 78.2136 82.1114 78.8838 82.1041 79.6193C82.0968 80.3566 81.4043 81.0196 80.6461 81.0125C79.8879 81.0055 79.2027 80.3336 79.21 79.5998C79.2173 78.8625 79.9098 78.2013 80.668 78.2066Z" fill="white"/>
</g>
<defs>
<clipPath id="clip0_203_16278">
<rect width="66.8501" height="72.421" fill="white" transform="translate(22.2832 15.9561)"/>
</clipPath>
</defs>
</svg>
